<?xml version="1.0" encoding="utf-8"?>
<!-- Generator: Adobe Illustrator 25.4.1, SVG Export Plug-In . SVG Version: 6.00 Build 0)  -->
<svg version="1.1" id="Layer_1" xmlns="http://www.w3.org/2000/svg" xmlns:xlink="http://www.w3.org/1999/xlink" x="0px" y="0px"
	 width="439.4px" height="198.2px" viewBox="0 0 439.4 198.2" style="enable-background:new 0 0 439.4 198.2;" xml:space="preserve"
	>
<style type="text/css">
	.st0{fill:none;}
	.st1{fill:#001689;}
	.st2{fill:#009EE2;}
	.st3{fill:url(#SVGID_1_);}
	.st4{fill:url(#SVGID_00000133524512757073348740000013441389647988333992_);}
	.st5{fill:url(#SVGID_00000025424264914592438320000005217385905393830785_);}
	.st6{fill:url(#SVGID_00000155843271424363881110000006209395149566754225_);}
	.st7{fill:url(#SVGID_00000086661679403771642950000013732832544293902270_);}
	.st8{fill:url(#SVGID_00000025432730912114423600000015884671695781197968_);}
	.st9{fill:url(#SVGID_00000056396739178237123360000017278983975471136444_);}
	.st10{fill:url(#SVGID_00000004540002199531928720000003644573351149938338_);}
	.st11{fill:url(#SVGID_00000158009295842154858990000003208391594160119480_);}
	.st12{fill:url(#SVGID_00000183231414852478733560000007981352249877175939_);}
	.st13{fill:url(#SVGID_00000107576488913093481960000008837763427312208261_);}
	.st14{fill:#FFFFFF;}
	.st15{fill:url(#SVGID_00000157288571188921017150000011487022257010705551_);}
	.st16{fill:url(#SVGID_00000178912725381867395880000013938983127298901127_);}
	.st17{fill:url(#SVGID_00000013187514326721931290000007280651171474131082_);}
	.st18{fill:url(#SVGID_00000051363300851660494530000006198976618232099510_);}
	.st19{fill:url(#SVGID_00000091709391392792516490000001039305365073259658_);}
	.st20{fill:url(#SVGID_00000106107941229155972400000016998799581629527732_);}
	.st21{fill:url(#SVGID_00000160156589403361146710000009851164087257682594_);}
	.st22{fill:url(#SVGID_00000041264039016361785580000013011320318725597619_);}
	.st23{fill:url(#SVGID_00000127763783136237705600000009576052997858590890_);}
	.st24{fill:url(#SVGID_00000032624512740622467800000016024492850649097137_);}
	.st25{fill:url(#SVGID_00000102528444931320224990000006675932704937455281_);}
	.st26{fill:url(#SVGID_00000005268896337962205490000011162547729091744163_);}
	.st27{fill:url(#SVGID_00000149375529811844771720000002616811553267515067_);}
	.st28{fill:url(#SVGID_00000172414063615949106200000009876263364783531192_);}
	.st29{fill:url(#SVGID_00000174580595000140522470000014034229686033922222_);}
	.st30{fill:url(#SVGID_00000083803834330878416400000017051463651701016759_);}
	.st31{fill:url(#SVGID_00000009584334021493124740000007632326329752681896_);}
	.st32{fill:url(#SVGID_00000031168214938030728750000003165696612297977232_);}
	.st33{fill:url(#SVGID_00000119081902373108611900000016123971756995164069_);}
	.st34{fill:url(#SVGID_00000163790616570987158550000003179960858293169317_);}
	.st35{fill:#E20613;}
	.st36{fill:url(#SVGID_00000079466943820835508290000000213587497867235983_);}
	.st37{fill:url(#SVGID_00000078007267256811193180000017918600287567004043_);}
	.st38{fill:url(#SVGID_00000129164649080736923740000018042765766322506388_);}
	.st39{fill:url(#SVGID_00000157298408698176298790000003148967193442790058_);}
	.st40{fill:url(#SVGID_00000125573670599290884570000014031890892812524189_);}
	.st41{fill:url(#SVGID_00000167370053829975424270000011494893417599303059_);}
	.st42{fill:url(#SVGID_00000091006088673012990910000012575994074048875652_);}
	.st43{fill:url(#SVGID_00000031911490505832428060000014572790525786534562_);}
	.st44{fill:url(#SVGID_00000119105457426948767370000010564861361878383798_);}
	.st45{fill:url(#SVGID_00000050636234562962832940000009879299887042697890_);}
	.st46{fill:url(#SVGID_00000064352678481802204040000010454213973559612044_);}
	.st47{fill:url(#SVGID_00000098191045742448870980000003324656247756012429_);}
	.st48{fill:url(#SVGID_00000124131965417155105340000001233803294386021798_);}
	.st49{fill:url(#SVGID_00000128477996411605383800000015741690622850672560_);}
	.st50{fill:url(#SVGID_00000165929058422473878740000015017137548753419189_);}
	.st51{fill:url(#SVGID_00000058559467905445918900000013079590883718394523_);}
	.st52{fill:url(#SVGID_00000073682905322857619070000017986832663551953563_);}
	.st53{fill:url(#SVGID_00000169530797030698873560000014366607226448567733_);}
	.st54{fill:url(#SVGID_00000168817387304201629020000003011503296617110447_);}
	.st55{fill:url(#SVGID_00000146493119996576405290000017871100823608359356_);}
	.st56{fill:url(#SVGID_00000178190710003919520910000009443168899600143011_);}
	.st57{fill:url(#SVGID_00000004514243154246383430000001455074505607135652_);}
	.st58{fill:url(#SVGID_00000040551427574594534980000017518159009970944400_);}
	.st59{fill:url(#SVGID_00000053524876140494310540000003522180790670566584_);}
	.st60{fill:url(#SVGID_00000140726090675647210180000011268450389073214101_);}
	.st61{fill:url(#SVGID_00000065774724329226936320000014613785535865474724_);}
	.st62{fill:url(#SVGID_00000130636718053363763540000001078151005548084884_);}
	.st63{fill:url(#SVGID_00000129196167663305705360000015292030336975082155_);}
</style>
<g>
	<g>
		<g>
			<g>
				<g>
					<path class="st0" d="M280.9,9.9L280.9,9.9c-8,2.4-17,5.5-18.7,6.1l-1.3,0.6c-5.4,2.7-12.7,6.3-15.4,17.7c0,0-3.2,13.9-6.1,26.3
						c-0.8-1.7-1.5-3.1-2-4.2c0,0-0.1-0.1-0.1-0.3c0.4-1.6,1.3-4.3,1.6-5.3c1.2-3.7,2.8-8.3,2.5-12.8c-0.2-2.8-1.1-5.6-3.2-8.1
						c-2.5-2.9-7.1-5.7-14.9-2.8l-1.5,0.6c-6.1,2.2-17.9,6.6-30.9,15c0-0.7,0.1-1.5,0-2.2c-0.2-2.4-0.8-4.7-2-6.7
						c-2.3-3.9-7.1-8.2-17.4-6c-7.9,1.7-16.8,4-18.4,4.5c-0.1,0-0.9,0.3-0.9,0.3c-2.8,0.8-7.3,2.2-11.4,5.9c-3-2.9-7.9-4.9-16.2-2.3
						c-7.9,2.5-16.9,5.9-17.9,6.3l-1.3,0.6c-3,1.6-6.6,3.5-9.7,7.2c-3.9-2.3-8.7-3-14.1-1.9c-0.1,0-0.1,0-0.2,0
						c-7.3,1.9-18.6,6.2-30.7,15.9C34.8,77,7.3,104.8,0.9,149.3c-3.5,24.3,4.3,36.4,11.5,42.3c11.2,9.2,26.7,7.6,37.1,2.1
						c2.6-1.4,6.8-3.9,12.5-7.5c0.4,0.9,0.8,1.8,1.3,2.6c2.1,2.9,5.1,4.6,8.5,4.9c3.8,0.3,7.7-1.3,14.5-4.7l1.3-0.7
						c0.1,0,0.1-0.1,0.1-0.1c5.5-2.5,8.8-9.4,10.2-12.8c1.8,2.9,4.6,4.8,7.8,5.4c3.7,0.7,7.8-0.5,14.9-3.2l1.4-0.5
						c0.1,0,0.1-0.1,0.2-0.1c6.1-2.1,10.1-9.7,11.3-12.2c0,0,4.9-10.2,9.4-19.4c1.2,2.7,2.6,5.2,4.4,7.5c10.2,13.1,29.4,18,49,12.5
						c8.4-2.4,15.8-5.7,22.2-10c0.2,2.3,0.9,5,2.7,7.6c2.1,2.9,5.2,4.7,8.6,5c3.7,0.3,7.7-1.2,14.8-4.5l1.4-0.6
						c0.1,0,0.1-0.1,0.2-0.1c6-2.6,9.6-10.5,10.6-13.1c0.1-0.3,0.4-0.9,2.6-7c0.5,0.9,0.9,2,1.4,2.8c4.9,9.1,13.8,13.5,23.9,11.9
						c6.9-1.1,13.3-4.8,18.5-10.5c2.3,1.6,5,2.5,8,2.3c5.3-0.1,9.2-1.5,11.6-2.5c4.5-1.9,7.2-5,9.7-10.1c0.8,0.9,1.6,1.5,2.4,2.1
						c12.5,8.7,46.9,3.1,65.6-20.3c13.4-16.7,15.6-31.3,15.1-40.6c0-0.2,0-0.4,0-0.6c-0.4-6.4-2.3-12.4-5.3-17.3
						c0.4-0.1,0.7-0.1,1.2-0.2c10.3-2.9,17.4-7.4,22.2-14c2.8-3.8,4.6-9,4.3-14.8c-0.4-5.6-2.9-11.7-8.7-17.5
						c-8.8-8.8-27-11-42.2-5.1c-4.8,1.9-12,6-18.7,12c-2.6-2.7-6.9-4.7-14-3.2c-5.8,1.2-11.7,3.8-17.5,7.5
						c-7.2-8.1-21.9-5.8-34.2-2.8c0,0-0.5,0.2-0.6,0.2c-0.2-2.8-1-5.3-2.5-7.5C295.4,9,289.2,7.5,280.9,9.9z"/>
					<path class="st1" d="M282.6,4.6L282.6,4.6c-8,2.4-17,5.5-18.7,6.1l-1.3,0.6c-5.4,2.6-12.7,6.3-15.4,17.8c0,0-3.2,13.9-6.1,26.3
						c-0.8-1.7-1.5-3.1-2-4.2c0,0-0.1-0.1-0.1-0.3c0.4-1.6,1.3-4.3,1.6-5.3c1.2-3.7,2.8-8.3,2.5-12.8c-0.2-2.8-1.1-5.6-3.2-8.1
						c-2.5-2.9-7.1-5.7-15-2.8l-1.5,0.6c-6.1,2.2-18,6.6-30.9,15c0-0.7,0.1-1.5,0-2.2c-0.2-2.4-0.8-4.7-2-6.7
						c-2.3-3.9-7.1-8.2-17.4-6c-7.9,1.7-16.8,4-18.5,4.5c-0.1,0-0.9,0.3-0.9,0.3c-2.8,0.8-7.3,2.2-11.4,5.9
						c-2.9-2.9-7.9-4.9-16.2-2.3c-7.9,2.5-16.9,5.9-17.9,6.3l-1.3,0.6c-3,1.6-6.6,3.5-9.7,7.2c-3.9-2.3-8.7-3.1-14.1-1.9
						c-0.1,0-0.1,0-0.2,0.1c-7.3,1.9-18.6,6.2-30.7,15.9c-15.9,12.6-43.4,40.5-49.8,85c-3.5,24.3,4.3,36.4,11.5,42.3
						c11.2,9.2,26.7,7.7,37.1,2.1c2.6-1.4,6.8-3.9,12.5-7.5c0.4,0.9,0.8,1.8,1.3,2.6c2.1,2.9,5.1,4.6,8.5,4.9
						c3.8,0.3,7.7-1.3,14.5-4.7l1.3-0.6c0.1,0,0.1-0.1,0.1-0.1c5.5-2.5,8.8-9.4,10.2-12.8c1.9,2.9,4.6,4.8,7.8,5.4
						c3.7,0.7,7.7-0.5,14.9-3.2l1.4-0.5c0.1,0,0.1-0.1,0.2-0.1c6.1-2.1,10.1-9.7,11.3-12.1c0,0,4.9-10.2,9.4-19.5
						c1.2,2.7,2.6,5.2,4.4,7.5c10.2,13.1,29.4,18,49,12.5c8.4-2.4,15.8-5.7,22.2-10c0.2,2.3,0.9,5,2.7,7.6c2.1,2.9,5.2,4.7,8.6,5
						c3.7,0.3,7.7-1.2,14.8-4.5l1.4-0.6c0.1,0,0.1-0.1,0.2-0.1c6-2.6,9.6-10.5,10.6-13.1c0.1-0.3,0.4-0.9,2.6-7
						c0.5,0.9,0.9,2,1.4,2.8c4.9,9.1,13.8,13.5,23.9,11.9c6.9-1.1,13.3-4.8,18.5-10.5c2.3,1.6,5,2.5,8,2.3c5.3-0.1,9.2-1.5,11.6-2.5
						c4.5-1.8,7.2-5,9.7-10.1c0.8,0.9,1.6,1.5,2.4,2.1c12.5,8.7,46.9,3.1,65.6-20.3c13.4-16.7,15.6-31.3,15.1-40.6
						c0-0.2,0-0.4,0-0.6c-0.4-6.5-2.3-12.4-5.3-17.3c0.4-0.1,0.8-0.1,1.2-0.2c10.3-2.9,17.4-7.4,22.1-14c2.7-3.8,4.6-9,4.3-14.8
						c-0.4-5.6-2.9-11.7-8.7-17.5c-8.8-8.8-27-11-42.2-5.1c-4.8,1.9-12,6-18.7,12c-2.6-2.7-6.9-4.7-14-3.2
						c-5.8,1.2-11.7,3.8-17.5,7.5c-7.2-8-21.9-5.8-34.2-2.8c0,0-0.5,0.2-0.6,0.2c-0.2-2.8-1-5.3-2.5-7.5
						C297.1,3.6,291,2.1,282.6,4.6z"/>
					<g>
						<path class="st2" d="M236.9,48.6c-0.1,0.3-0.1,0.5-0.1,0.7c0,0.3,0.1,0.6,0.2,0.9l0,0l1.6-5.3c1.2-3.5,2.6-7.9,2.3-11.9
							c0-0.3-0.1-0.7-0.1-1c0.1,3.8-1.3,7.8-2.4,11.1L236.9,48.6z"/>
						<path class="st2" d="M190.4,36.3v-0.9c0-0.4-0.1-0.7-0.1-1.1v1.2C190.3,35.8,190.3,36.1,190.4,36.3z"/>
						<path class="st2" d="M433.4,37.2c-4.5,6.2-11.2,10.4-21,13.2l-1.1,0.2c-0.7,0.1-1.2,0.6-1.5,1.3c-0.2,0.6-0.2,1.3,0.1,1.9
							v-0.1c0.3-0.7,0.8-1.2,1.5-1.3l1.1-0.2c9.9-2.8,16.5-7,21-13.2c1.6-2.2,4.2-6.9,3.8-13.2c0-0.3-0.1-0.6-0.1-0.9
							C437.4,30.8,435,35.1,433.4,37.2z"/>
						<path class="st2" d="M400.4,109.9c-18.1,22.6-51.1,28.1-63.1,19.8c-0.7-0.5-1.4-1.1-2.1-1.8c-0.4-0.5-1.1-0.7-1.7-0.5
							c-0.6,0.1-1.1,0.6-1.4,1.2c-2.4,5-4.8,7.5-8.6,9.1c-2.3,1-6,2.2-11.1,2.3c-2.4,0.2-4.8-0.5-6.8-2c-0.8-0.5-1.8-0.4-2.4,0.3
							c-4.9,5.4-10.9,8.8-17.4,9.8c-9.3,1.5-17.5-2.6-22-10.9l-0.8-1.6l-0.6-1.2c-0.4-0.7-1.1-1.1-1.8-1.1c-0.8,0.1-1.4,0.6-1.7,1.4
							l-2.6,6.9c-0.6,1.6-4,9.5-9.6,11.9c0,0-0.1,0.1-0.2,0.1c-0.2,0.1-1.3,0.6-1.3,0.6c-6.8,3.2-10.6,4.6-13.9,4.3
							c-2.9-0.3-5.5-1.7-7.3-4.2c-1.3-1.8-2.1-4-2.3-6.5c-0.1-0.7-0.5-1.4-1-1.7c-0.6-0.3-1.3-0.3-1.9,0.1
							c-6.3,4.2-13.6,7.4-21.7,9.7c-18.9,5.4-37.3,0.7-47.1-11.8c-1.5-1.9-2.8-4.2-4.1-7.1c-0.3-0.7-1-1.2-1.7-1.2s-1.4,0.5-1.8,1.2
							l-4.8,10c-3.2,6.7-4.3,8.9-4.6,9.8c0-0.1,0-0.3,0.1-0.4c-0.7,1.5-4.6,9.1-10.2,11.1c0,0-0.1,0.1-0.2,0.1
							c-0.2,0.1-1.3,0.5-1.3,0.5c-6.8,2.6-10.6,3.7-13.9,3.1c-2.7-0.5-5-2.1-6.6-4.6c-0.4-0.6-1.1-1-1.8-0.8
							c-0.7,0.1-1.3,0.6-1.6,1.4c-1.1,2.7-4.1,9.4-9,11.6c-0.1,0-0.1,0-0.1,0.1l-0.1,0.1c-0.2,0.1-1.2,0.6-1.2,0.6
							c-6.5,3.3-10.2,4.8-13.6,4.5c-2.9-0.2-5.4-1.7-7.2-4.1c-0.4-0.5-0.7-1.2-1-1.9l-0.1-0.3c-0.2-0.5-0.6-0.9-1.2-1.1
							c-0.5-0.2-1.1-0.1-1.5,0.2c-5.7,3.5-9.8,6-12.4,7.4c-9.9,5.3-24.6,6.8-35.1-1.9c-5-4.1-10.3-11.4-11.4-24.3
							c0.7,14,6.3,21.8,11.5,26c10.5,8.7,25.2,7.2,35.1,1.9c2.5-1.4,6.7-3.8,12.4-7.4c0.5-0.3,1-0.4,1.5-0.2
							c0.5,0.2,0.9,0.6,1.2,1.1l0.1,0.3c0.3,0.7,0.6,1.4,1,1.9c1.7,2.4,4.3,3.9,7.2,4.1c3.3,0.3,7-1.2,13.6-4.5c0,0,1-0.5,1.2-0.6
							c0.1,0,0.1-0.1,0.1-0.1c0.1-0.1,0,0,0.2-0.1c4.9-2.2,8-8.9,9-11.6c0.3-0.7,0.9-1.2,1.6-1.4c0.7-0.1,1.4,0.2,1.8,0.8
							c1.6,2.5,3.9,4.1,6.6,4.6c3.3,0.6,7.1-0.5,13.9-3.1c0,0,1.1-0.4,1.3-0.5c0.1-0.1,0.2-0.1,0.2-0.1c5.7-2,9.5-9.6,10.2-11.1
							c-0.1,0.1,0,0.2-0.1,0.4c0.3-0.9,1.4-3.1,4.6-9.8l4.9-10c0.4-0.7,1-1.2,1.8-1.2c0.7,0,1.4,0.4,1.7,1.1
							c1.3,2.9,2.6,5.2,4.1,7.1c9.7,12.5,28.2,17.2,47.1,11.8c8.1-2.3,15.3-5.6,21.7-9.7c0.6-0.4,1.3-0.4,1.9-0.1
							c0.6,0.3,1,0.9,1,1.7c0.2,2.5,1,4.7,2.3,6.5c1.8,2.5,4.4,3.9,7.3,4.2c3.3,0.3,7.1-1.2,13.9-4.3c0,0,1.1-0.5,1.3-0.6
							c0.1-0.1,0.2-0.1,0.2-0.1c5.6-2.4,9-10.3,9.6-11.9l2.6-6.9c0.3-0.8,1-1.4,1.7-1.4c0.8-0.1,1.5,0.3,1.8,1.1l0.6,1.2l0.8,1.6
							c4.5,8.3,12.7,12.4,22,10.9c6.4-1,12.4-4.4,17.4-9.8c0.7-0.7,1.7-0.9,2.5-0.3c2,1.5,4.4,2.1,6.8,2c5.1-0.1,8.8-1.4,11.1-2.3
							c3.8-1.5,6.2-4.1,8.6-9.1c0.3-0.6,0.8-1,1.4-1.2c0.6-0.1,1.2,0.1,1.7,0.5c0.6,0.7,1.3,1.3,2.1,1.8c11.9,8.3,45,2.7,63.1-19.8
							c12.9-16.1,15.1-30.1,14.6-39v-0.6c0-0.2,0-0.5-0.1-0.7C415.4,80.4,413.1,94.1,400.4,109.9z"/>
					</g>
					<g>
						<path class="st2" d="M241.3,57.1c-0.7,0.1-1.3-0.2-1.6-0.9l-2-4.2c0.1,0.2,0.3,0.4,0.5,0.5c-0.2-0.2-0.4-0.4-0.6-0.8l0,0v0.1
							c-0.1,0.2-0.1,0.4-0.1,0.6c0,0.2,0.1,0.5,0.2,0.7c0.2,0.4,0.4,0.6,0.6,0.8c0.1,0.1,0.2,0.1,0.2,0.2c-0.1,0-0.2-0.1-0.2-0.2
							c-0.2-0.1-0.3-0.3-0.4-0.5l2,4.2c0.3,0.6,1,1,1.6,0.9c0.7-0.1,1.2-0.7,1.4-1.4l4-17.1c1.6-7,2-8.8,2.2-9.4c0,0.1,0,0.2,0,0.2
							c2.5-10.6,9.1-13.9,14.4-16.5c0,0,1.3-0.5,1.2-0.5c1.7-0.6,10.7-3.8,18.6-6.1l0,0c7.7-2.3,13.2-1,16.5,3.9
							c1.3,1.9,2,4.1,2.2,6.6c0,0.5,0.3,1,0.7,1.3c0.4,0.3,0.9,0.4,1.4,0.2l0.4-0.1c11.7-2.8,26.1-5.2,32.8,2.4
							c0.5,0.6,1.3,0.7,1.9,0.3c5.7-3.7,11.4-6.1,17-7.3c5.5-1.1,9.7-0.2,12.6,2.8c0.6,0.6,1.5,0.6,2.1,0c6.7-6,13.8-10,18.2-11.7
							c14.7-5.7,32.2-3.7,40.6,4.7c4.9,4.8,7.6,10.1,8.1,15.7c0-0.2,0-0.4,0-0.6c-0.4-5.8-3.1-11.3-8.2-16.4
							C421.1,1.1,403.7-1,389,4.8c-4.4,1.7-11.5,5.7-18.2,11.7c-0.6,0.6-1.5,0.5-2.1,0c-2.9-3-7.2-3.9-12.6-2.8
							c-5.6,1.2-11.3,3.6-17,7.3c-0.6,0.4-1.4,0.3-1.9-0.3c-6.7-7.5-21.1-5.2-32.8-2.4l-0.4,0.1c-0.5,0.1-1,0.1-1.4-0.2
							c-0.4-0.3-0.7-0.7-0.7-1.3c-0.2-2.5-0.9-4.7-2.2-6.6c-3.3-4.9-8.9-6.2-16.5-3.9l0,0c-7.9,2.4-16.9,5.5-18.6,6.1
							c0.1,0-1.2,0.5-1.2,0.5c-5.3,2.6-11.9,5.9-14.4,16.5c0-0.1,0-0.2,0-0.2c-0.1,0.6-0.5,2.4-2.2,9.4l-4,17.1
							C242.5,56.4,241.9,57,241.3,57.1z"/>
						<path class="st2" d="M239.6,52.8c0.1,0,0.2-0.1,0.3-0.1C239.7,52.7,239.6,52.8,239.6,52.8z"/>
						<path class="st2" d="M238.3,52.8c-0.1,0-0.2-0.1-0.2-0.2C238.2,52.7,238.3,52.7,238.3,52.8z"/>
						<path class="st2" d="M239.6,52.8c-0.1,0-0.2,0.1-0.4,0.1C239.3,52.9,239.4,52.9,239.6,52.8z"/>
						<path class="st2" d="M190.8,38.6c0,0.6,0.3,1.3,0.8,1.6c0.5,0.3,1.1,0.3,1.6,0c13.1-8.5,25.4-12.9,30.6-14.8l1.5-0.5
							c7.1-2.6,11.2-0.2,13.3,2.4c1.6,1.8,2.5,3.9,2.7,6.3c0-0.2,0-0.4,0-0.6c-0.2-2.7-1.1-5-2.8-7c-2.2-2.5-6.2-5-13.3-2.4
							l-1.5,0.6c-5.2,1.9-17.5,6.3-30.6,14.8c-0.5,0.3-1.1,0.3-1.6,0c-0.3-0.2-0.6-0.6-0.7-0.9L190.8,38.6z"/>
						<path class="st2" d="M410.3,55.4c-0.2,0.5-0.1,1.1,0.2,1.6c2.8,4.6,4.5,10.2,5,16c0-0.1,0-0.2,0-0.3v-0.6
							c-0.4-6-2.1-11.7-5.1-16.5C410.4,55.6,410.3,55.5,410.3,55.4z"/>
						<path class="st2" d="M4.1,145.6c6.3-43.8,33.5-71.3,49.2-83.8c11.9-9.5,22.9-13.7,30.1-15.6h0.2c4.9-1.1,9.5-0.5,13.1,1.7
							c0.6,0.4,1.5,0.2,2-0.4c2.9-3.5,6.4-5.3,9.1-6.7l1.2-0.6c1-0.4,9.9-3.8,17.8-6.3c6.4-2,11.3-1.4,14.7,1.9
							c0.6,0.6,1.4,0.6,2.1,0c3.8-3.5,8.3-4.8,10.8-5.5l0.8-0.3c1.7-0.5,10.6-2.8,18.4-4.5c7.5-1.6,12.9,0.2,15.8,5.3
							c0.9,1.5,1.4,3.2,1.6,5v-0.5c-0.1-2.1-0.7-4.1-1.7-5.8c-2.9-5-8.4-6.8-15.8-5.3c-7.8,1.7-16.7,4-18.4,4.5l-0.8,0.3
							c-2.5,0.7-7,2-10.8,5.5c-0.6,0.6-1.5,0.6-2.1,0c-3.4-3.3-8.4-4-14.7-1.9c-7.8,2.5-16.8,5.9-17.8,6.3l-1.2,0.6
							c-2.7,1.4-6.2,3.3-9.1,6.7c-0.5,0.6-1.3,0.8-2,0.4c-3.6-2.2-8.1-2.8-13.1-1.7h-0.1c-7.2,1.9-18.2,6.1-30.1,15.6
							c-15.6,12.5-42.8,40-49.2,83.8c-0.8,5.7-1,10.6-0.7,15c0,0.3,0,0.5,0.1,0.7C3.1,155.8,3.3,151,4.1,145.6z"/>
					</g>
					<g>
						
							<radialGradient id="SVGID_1_" cx="175.5931" cy="1041.1993" r="5.9312" gradientTransform="matrix(0.9906 -0.1232 7.230065e-02 1.1034 -10.315 -1086.1321)" gradientUnits="userSpaceOnUse">
							<stop  offset="0" style="stop-color:#FFFFFF"/>
							<stop  offset="0.9663" style="stop-color:#001689"/>
						</radialGradient>
						<path class="st3" d="M236.9,48.6c-0.1,0.3-0.1,0.5-0.1,0.7c0,0.3,0.1,0.6,0.2,0.9l0,0l1.6-5.3c1.2-3.5,2.6-7.9,2.3-11.9
							c0-0.3-0.1-0.7-0.1-1c0.1,3.8-1.3,7.8-2.4,11.1L236.9,48.6z"/>
						
							<radialGradient id="SVGID_00000047052407337638750700000000935003632742690959_" cx="127.3081" cy="1030.5878" r="0.6366" gradientTransform="matrix(0.9906 -0.1232 7.230065e-02 1.1034 -10.315 -1086.1321)" gradientUnits="userSpaceOnUse">
							<stop  offset="0" style="stop-color:#FFFFFF"/>
							<stop  offset="0.9663" style="stop-color:#001689"/>
						</radialGradient>
						<path style="fill:url(#SVGID_00000047052407337638750700000000935003632742690959_);" d="M190.4,36.3v-0.9
							c0-0.4-0.1-0.7-0.1-1.1v1.2C190.3,35.8,190.3,36.1,190.4,36.3z"/>
						
							<radialGradient id="SVGID_00000061429573242554568360000006932918172704276624_" cx="360.4936" cy="1060.2944" r="13.2586" gradientTransform="matrix(0.9906 -0.1232 7.230065e-02 1.1034 -10.315 -1086.1321)" gradientUnits="userSpaceOnUse">
							<stop  offset="0" style="stop-color:#FFFFFF"/>
							<stop  offset="0.9663" style="stop-color:#001689"/>
						</radialGradient>
						<path style="fill:url(#SVGID_00000061429573242554568360000006932918172704276624_);" d="M433.4,37.2
							c-4.5,6.2-11.2,10.4-21,13.2l-1.1,0.2c-0.7,0.1-1.2,0.6-1.5,1.3c-0.2,0.6-0.2,1.3,0.1,1.9v-0.1c0.3-0.7,0.8-1.2,1.5-1.3
							l1.1-0.2c9.9-2.8,16.5-7,21-13.2c1.6-2.2,4.2-6.9,3.8-13.2c0-0.3-0.1-0.6-0.1-0.9C437.4,30.8,435,35.1,433.4,37.2z"/>
						
							<radialGradient id="SVGID_00000001665740247153072740000014777508279689579960_" cx="141.2641" cy="1120.7943" r="149.3618" gradientTransform="matrix(0.9906 -0.1232 7.230065e-02 1.1034 -10.315 -1086.1321)" gradientUnits="userSpaceOnUse">
							<stop  offset="0" style="stop-color:#FFFFFF"/>
							<stop  offset="0.9663" style="stop-color:#001689"/>
						</radialGradient>
						<path style="fill:url(#SVGID_00000001665740247153072740000014777508279689579960_);" d="M400.4,109.9
							c-18.1,22.6-51.1,28.1-63.1,19.8c-0.7-0.5-1.4-1.1-2.1-1.8c-0.4-0.5-1.1-0.7-1.7-0.5c-0.6,0.1-1.1,0.6-1.4,1.2
							c-2.4,5-4.8,7.5-8.6,9.1c-2.3,1-6,2.2-11.1,2.3c-2.4,0.2-4.8-0.5-6.8-2c-0.8-0.5-1.8-0.4-2.4,0.3c-4.9,5.4-10.9,8.8-17.4,9.8
							c-9.3,1.5-17.5-2.6-22-10.9l-0.8-1.6l-0.6-1.2c-0.4-0.7-1.1-1.1-1.8-1.1c-0.8,0.1-1.4,0.6-1.7,1.4l-2.6,6.9
							c-0.6,1.6-4,9.5-9.6,11.9c0,0-0.1,0.1-0.2,0.1c-0.2,0.1-1.3,0.6-1.3,0.6c-6.8,3.2-10.6,4.6-13.9,4.3c-2.9-0.3-5.5-1.7-7.3-4.2
							c-1.3-1.8-2.1-4-2.3-6.5c-0.1-0.7-0.5-1.4-1-1.7c-0.6-0.3-1.3-0.3-1.9,0.1c-6.3,4.2-13.6,7.4-21.7,9.7
							c-18.9,5.4-37.3,0.7-47.1-11.8c-1.5-1.9-2.8-4.2-4.1-7.1c-0.3-0.7-1-1.2-1.7-1.2s-1.4,0.5-1.8,1.2l-4.8,10
							c-3.2,6.7-4.3,8.9-4.6,9.8c0-0.1,0-0.3,0.1-0.4c-0.7,1.5-4.6,9.1-10.2,11.1c0,0-0.1,0.1-0.2,0.1c-0.2,0.1-1.3,0.5-1.3,0.5
							c-6.8,2.6-10.6,3.7-13.9,3.1c-2.7-0.5-5-2.1-6.6-4.6c-0.4-0.6-1.1-1-1.8-0.8c-0.7,0.1-1.3,0.6-1.6,1.4
							c-1.1,2.7-4.1,9.4-9,11.6c-0.1,0-0.1,0-0.1,0.1l-0.1,0.1c-0.2,0.1-1.2,0.6-1.2,0.6c-6.5,3.3-10.2,4.8-13.6,4.5
							c-2.9-0.2-5.4-1.7-7.2-4.1c-0.4-0.5-0.7-1.2-1-1.9l-0.1-0.3c-0.2-0.5-0.6-0.9-1.2-1.1c-0.5-0.2-1.1-0.1-1.5,0.2
							c-5.7,3.5-9.8,6-12.4,7.4c-9.9,5.3-24.6,6.8-35.1-1.9c-5-4.1-10.3-11.4-11.4-24.3c0.7,14,6.3,21.8,11.5,26
							c10.5,8.7,25.2,7.2,35.1,1.9c2.5-1.4,6.7-3.8,12.4-7.4c0.5-0.3,1-0.4,1.5-0.2c0.5,0.2,0.9,0.6,1.2,1.1l0.1,0.3
							c0.3,0.7,0.6,1.4,1,1.9c1.7,2.4,4.3,3.9,7.2,4.1c3.3,0.3,7-1.2,13.6-4.5c0,0,1-0.5,1.2-0.6c0.1,0,0.1-0.1,0.1-0.1
							c0.1-0.1,0,0,0.2-0.1c4.9-2.2,8-8.9,9-11.6c0.3-0.7,0.9-1.2,1.6-1.4c0.7-0.1,1.4,0.2,1.8,0.8c1.6,2.5,3.9,4.1,6.6,4.6
							c3.3,0.6,7.1-0.5,13.9-3.1c0,0,1.1-0.4,1.3-0.5c0.1-0.1,0.2-0.1,0.2-0.1c5.7-2,9.5-9.6,10.2-11.1c-0.1,0.1,0,0.2-0.1,0.4
							c0.3-0.9,1.4-3.1,4.6-9.8l4.9-10c0.4-0.7,1-1.2,1.8-1.2c0.7,0,1.4,0.4,1.7,1.1c1.3,2.9,2.6,5.2,4.1,7.1
							c9.7,12.5,28.2,17.2,47.1,11.8c8.1-2.3,15.3-5.6,21.7-9.7c0.6-0.4,1.3-0.4,1.9-0.1c0.6,0.3,1,0.9,1,1.7c0.2,2.5,1,4.7,2.3,6.5
							c1.8,2.5,4.4,3.9,7.3,4.2c3.3,0.3,7.1-1.2,13.9-4.3c0,0,1.1-0.5,1.3-0.6c0.1-0.1,0.2-0.1,0.2-0.1c5.6-2.4,9-10.3,9.6-11.9
							l2.6-6.9c0.3-0.8,1-1.4,1.7-1.4c0.8-0.1,1.5,0.3,1.8,1.1l0.6,1.2l0.8,1.6c4.5,8.3,12.7,12.4,22,10.9c6.4-1,12.4-4.4,17.4-9.8
							c0.7-0.7,1.7-0.9,2.5-0.3c2,1.5,4.4,2.1,6.8,2c5.1-0.1,8.8-1.4,11.1-2.3c3.8-1.5,6.2-4.1,8.6-9.1c0.3-0.6,0.8-1,1.4-1.2
							c0.6-0.1,1.2,0.1,1.7,0.5c0.6,0.7,1.3,1.3,2.1,1.8c11.9,8.3,45,2.7,63.1-19.8c12.9-16.1,15.1-30.1,14.6-39v-0.6
							c0-0.2,0-0.5-0.1-0.7C415.4,80.4,413.1,94.1,400.4,109.9z"/>
					</g>
					<g>
						
							<radialGradient id="SVGID_00000058564554484363986860000008724240177869223595_" cx="274.558" cy="1035.7712" r="73.1037" gradientTransform="matrix(0.9906 -0.1232 7.230065e-02 1.1034 -10.315 -1086.1321)" gradientUnits="userSpaceOnUse">
							<stop  offset="0" style="stop-color:#FFFFFF"/>
							<stop  offset="0.9663" style="stop-color:#001689"/>
						</radialGradient>
						<path style="fill:url(#SVGID_00000058564554484363986860000008724240177869223595_);" d="M241.3,57.1
							c-0.7,0.1-1.3-0.2-1.6-0.9l-2-4.2c0.1,0.2,0.3,0.4,0.5,0.5c-0.2-0.2-0.4-0.4-0.6-0.8l0,0v0.1c-0.1,0.2-0.1,0.4-0.1,0.6
							c0,0.2,0.1,0.5,0.2,0.7c0.2,0.4,0.4,0.6,0.6,0.8c0.1,0.1,0.2,0.1,0.2,0.2c-0.1,0-0.2-0.1-0.2-0.2c-0.2-0.1-0.3-0.3-0.4-0.5
							l2,4.2c0.3,0.6,1,1,1.6,0.9c0.7-0.1,1.2-0.7,1.4-1.4l4-17.1c1.6-7,2-8.8,2.2-9.4c0,0.1,0,0.2,0,0.2
							c2.5-10.6,9.1-13.9,14.4-16.5c0,0,1.3-0.5,1.2-0.5c1.7-0.6,10.7-3.8,18.6-6.1l0,0c7.7-2.3,13.2-1,16.5,3.9
							c1.3,1.9,2,4.1,2.2,6.6c0,0.5,0.3,1,0.7,1.3c0.4,0.3,0.9,0.4,1.4,0.2l0.4-0.1c11.7-2.8,26.1-5.2,32.8,2.4
							c0.5,0.6,1.3,0.7,1.9,0.3c5.7-3.7,11.4-6.1,17-7.3c5.5-1.1,9.7-0.2,12.6,2.8c0.6,0.6,1.5,0.6,2.1,0c6.7-6,13.8-10,18.2-11.7
							c14.7-5.7,32.2-3.7,40.6,4.7c4.9,4.8,7.6,10.1,8.1,15.7c0-0.2,0-0.4,0-0.6c-0.4-5.8-3.1-11.3-8.2-16.4
							C421.1,1.1,403.7-1,389,4.8c-4.4,1.7-11.5,5.7-18.2,11.7c-0.6,0.6-1.5,0.5-2.1,0c-2.9-3-7.2-3.9-12.6-2.8
							c-5.6,1.2-11.3,3.6-17,7.3c-0.6,0.4-1.4,0.3-1.9-0.3c-6.7-7.5-21.1-5.2-32.8-2.4l-0.4,0.1c-0.5,0.1-1,0.1-1.4-0.2
							c-0.4-0.3-0.7-0.7-0.7-1.3c-0.2-2.5-0.9-4.7-2.2-6.6c-3.3-4.9-8.9-6.2-16.5-3.9l0,0c-7.9,2.4-16.9,5.5-18.6,6.1
							c0.1,0-1.2,0.5-1.2,0.5c-5.3,2.6-11.9,5.9-14.4,16.5c0-0.1,0-0.2,0-0.2c-0.1,0.6-0.5,2.4-2.2,9.4l-4,17.1
							C242.5,56.4,241.9,57,241.3,57.1z"/>
						
							<radialGradient id="SVGID_00000003821964039389296420000004851262710678306433_" cx="175.5732" cy="1051.759" r="9.747638e-02" gradientTransform="matrix(0.9906 -0.1232 7.230065e-02 1.1034 -10.315 -1086.1321)" gradientUnits="userSpaceOnUse">
							<stop  offset="0" style="stop-color:#FFFFFF"/>
							<stop  offset="0.9663" style="stop-color:#001689"/>
						</radialGradient>
						<path style="fill:url(#SVGID_00000003821964039389296420000004851262710678306433_);" d="M239.6,52.8c0.1,0,0.2-0.1,0.3-0.1
							C239.7,52.7,239.6,52.8,239.6,52.8z"/>
						
							<radialGradient id="SVGID_00000079462823558070041070000013064635914521576067_" cx="174.1238" cy="1051.5189" r="0.1027" gradientTransform="matrix(0.9906 -0.1232 7.230065e-02 1.1034 -10.315 -1086.1321)" gradientUnits="userSpaceOnUse">
							<stop  offset="0" style="stop-color:#FFFFFF"/>
							<stop  offset="0.9663" style="stop-color:#001689"/>
						</radialGradient>
						<path style="fill:url(#SVGID_00000079462823558070041070000013064635914521576067_);" d="M238.3,52.8c-0.1,0-0.2-0.1-0.2-0.2
							C238.2,52.7,238.3,52.7,238.3,52.8z"/>
						
							<radialGradient id="SVGID_00000160899370244820398170000003397296322337376906_" cx="175.2483" cy="1051.824" r="0.1378" gradientTransform="matrix(0.9906 -0.1232 7.230065e-02 1.1034 -10.315 -1086.1321)" gradientUnits="userSpaceOnUse">
							<stop  offset="0" style="stop-color:#FFFFFF"/>
							<stop  offset="0.9663" style="stop-color:#001689"/>
						</radialGradient>
						<path style="fill:url(#SVGID_00000160899370244820398170000003397296322337376906_);" d="M239.6,52.8c-0.1,0-0.2,0.1-0.4,0.1
							C239.3,52.9,239.4,52.9,239.6,52.8z"/>
						
							<radialGradient id="SVGID_00000029008570453920021130000009033772551776723590_" cx="153.0913" cy="1029.4435" r="18.5311" gradientTransform="matrix(0.9906 -0.1232 7.230065e-02 1.1034 -10.315 -1086.1321)" gradientUnits="userSpaceOnUse">
							<stop  offset="0" style="stop-color:#FFFFFF"/>
							<stop  offset="0.9663" style="stop-color:#001689"/>
						</radialGradient>
						<path style="fill:url(#SVGID_00000029008570453920021130000009033772551776723590_);" d="M190.8,38.6c0,0.6,0.3,1.3,0.8,1.6
							c0.5,0.3,1.1,0.3,1.6,0c13.1-8.5,25.4-12.9,30.6-14.8l1.5-0.5c7.1-2.6,11.2-0.2,13.3,2.4c1.6,1.8,2.5,3.9,2.7,6.3
							c0-0.2,0-0.4,0-0.6c-0.2-2.7-1.1-5-2.8-7c-2.2-2.5-6.2-5-13.3-2.4l-1.5,0.6c-5.2,1.9-17.5,6.3-30.6,14.8
							c-0.5,0.3-1.1,0.3-1.6,0c-0.3-0.2-0.6-0.6-0.7-0.9L190.8,38.6z"/>
						
							<radialGradient id="SVGID_00000140700955080766993510000018158295459195308729_" cx="348.2295" cy="1081.4192" r="5.9721" gradientTransform="matrix(0.9906 -0.1232 7.230065e-02 1.1034 -10.315 -1086.1321)" gradientUnits="userSpaceOnUse">
							<stop  offset="0" style="stop-color:#FFFFFF"/>
							<stop  offset="0.9663" style="stop-color:#001689"/>
						</radialGradient>
						<path style="fill:url(#SVGID_00000140700955080766993510000018158295459195308729_);" d="M410.3,55.4
							c-0.2,0.5-0.1,1.1,0.2,1.6c2.8,4.6,4.5,10.2,5,16c0-0.1,0-0.2,0-0.3v-0.6c-0.4-6-2.1-11.7-5.1-16.5
							C410.4,55.6,410.3,55.5,410.3,55.4z"/>
						
							<radialGradient id="SVGID_00000035526537462867483860000004952016209692858553_" cx="29.9676" cy="1070.1943" r="78.1613" gradientTransform="matrix(0.9906 -0.1232 7.230065e-02 1.1034 -10.315 -1086.1321)" gradientUnits="userSpaceOnUse">
							<stop  offset="0" style="stop-color:#FFFFFF"/>
							<stop  offset="0.9663" style="stop-color:#001689"/>
						</radialGradient>
						<path style="fill:url(#SVGID_00000035526537462867483860000004952016209692858553_);" d="M4.1,145.6
							c6.3-43.8,33.5-71.3,49.2-83.8c11.9-9.5,22.9-13.7,30.1-15.6h0.2c4.9-1.1,9.5-0.5,13.1,1.7c0.6,0.4,1.5,0.2,2-0.4
							c2.9-3.5,6.4-5.3,9.1-6.7l1.2-0.6c1-0.4,9.9-3.8,17.8-6.3c6.4-2,11.3-1.4,14.7,1.9c0.6,0.6,1.4,0.6,2.1,0
							c3.8-3.5,8.3-4.8,10.8-5.5l0.8-0.3c1.7-0.5,10.6-2.8,18.4-4.5c7.5-1.6,12.9,0.2,15.8,5.3c0.9,1.5,1.4,3.2,1.6,5v-0.5
							c-0.1-2.1-0.7-4.1-1.7-5.8c-2.9-5-8.4-6.8-15.8-5.3c-7.8,1.7-16.7,4-18.4,4.5l-0.8,0.3c-2.5,0.7-7,2-10.8,5.5
							c-0.6,0.6-1.5,0.6-2.1,0c-3.4-3.3-8.4-4-14.7-1.9c-7.8,2.5-16.8,5.9-17.8,6.3l-1.2,0.6c-2.7,1.4-6.2,3.3-9.1,6.7
							c-0.5,0.6-1.3,0.8-2,0.4c-3.6-2.2-8.1-2.8-13.1-1.7h-0.1c-7.2,1.9-18.2,6.1-30.1,15.6c-15.6,12.5-42.8,40-49.2,83.8
							c-0.8,5.7-1,10.6-0.7,15c0,0.3,0,0.5,0.1,0.7C3.1,155.8,3.3,151,4.1,145.6z"/>
					</g>
					<path class="st1" d="M149,41.9L149,41.9c0,0.6,0,1.1-0.1,1.6C149,43,149,42.5,149,41.9z M240.5,45.6c0.2,0.5,0.3,0.4,0.3,0.7
						C240.7,45.9,240.5,45.6,240.5,45.6z M123.3,156c1-0.1,1.9,0.2,2.7,0.6c-1.1-0.5-2.3-0.7-3.4-0.4C122.6,156.1,123,156,123.3,156
						z M90.8,167.9c-1.2-0.4-2.4-0.5-3.6-0.1c0,0,0.7-0.2,0.9-0.3C89,167.4,89.9,167.6,90.8,167.9z M249.6,142.4
						c-1.2-0.5-2.5-0.6-3.7-0.3c0,0,0.8-0.2,0.9-0.3C247.7,141.7,248.7,142,249.6,142.4z"/>
					<path class="st14" d="M428.2,10.4c-7.4-7.4-23.6-9-36.6-3.9c-5.7,2.2-14.9,7.9-22.2,16.2c0-1.4-0.4-2.8-1.2-4.1
						c-1.9-3-5.3-4-10.2-3c-7.4,1.6-14.3,5.4-20.4,10.1c-0.2-0.9-0.5-1.9-1-2.8c-3.4-6-13-6.8-30.2-2.7c-0.1,0-0.2,0.1-0.3,0.1
						c-2.3,0.7-8,2.9-10.5,7.2c0,0-0.1,0.2-0.3,0.6c0.5-1.3,2.3-6.3,2.3-6.3c0.5-1.2,1.6-3.9,1.4-6.8c-0.1-1.4-0.5-2.9-1.4-4.3
						c-3.4-5-10.1-3-12.3-2.3l0,0c-8.4,2.5-18.1,5.9-18.5,6.1c-0.2,0.1-0.5,0.2-0.7,0.3c-4.9,2.4-10,4.9-12,13.3l-10.5,45.2
						c-2.3-9.3-6.1-17.1-8.2-21.3l-1-2c-0.4-1.3,1.2-6.2,2.1-8.8c1.8-5.5,3.5-10.7,0.4-14.4c-3-3.5-7.6-1.8-9.2-1.2l-1.5,0.6
						c-8.6,3.1-28,10.1-45.9,26.8l5.7-11.7c0.9-1.5,3.5-6.9,0.9-11.4c-3-5.2-9.6-3.8-11.7-3.3c-8.3,1.7-17.8,4.3-18.2,4.4
						c-0.2,0-0.5,0.2-0.7,0.2c-4.9,1.4-11.5,3.5-14,12.9c0,0,0,0,0-0.1c0.4-2.4-0.6-5.8-1.6-7.2c-3.4-4.8-9.8-2.7-11.9-2.1
						c-8,2.6-17.2,6.1-17.6,6.2c-0.2,0.1-0.5,0.2-0.7,0.3c-4.3,2.2-8.7,4.6-10.9,11.3c-2.7-4.8-7.7-6.9-14.3-5.4
						c-6.9,1.8-17.3,5.8-28.6,14.8c-15.1,12-41.3,38.5-47.4,80.6c-3.1,21.1,3.4,31.4,9.3,36.3c9.3,7.7,22.4,6.3,31.3,1.5
						c3.5-1.9,10.1-5.9,19.6-12c0,0.2-0.3,1.3-0.3,1.3c-0.1,0.3-0.1,0.5-0.2,0.8c0,0.4-0.1,1.1,0,2c0.1,1.4,0.5,3.2,1.6,4.7
						c1.1,1.6,2.8,2.5,4.7,2.7c2.5,0.2,5.9-1.2,11.7-4.1l1.3-0.7c-0.3,0.2-0.3,0.1-0.6,0.2c4.4-1,7.6-9,7.9-10
						c0,0,5.3-13.7,7.1-18.5c0.9-0.6,3.4-2.3,6.6-4.4c-2.4,6.9-4.8,13.8-4.8,13.8c-0.1,0.3-0.2,0.5-0.2,0.8
						c-0.1,0.5-0.3,1.5-0.2,2.9c0.1,1.2,0.4,2.6,1.2,4c1,1.7,2.6,2.8,4.4,3.1c2.5,0.5,6-0.6,12-3l1.4-0.5c-0.3,0.1-0.3,0.1-0.6,0.1
						c4.5-0.6,8.3-8.3,8.7-9.2l16.3-33.7c0.3,9.4,3.5,16,6.9,20.3c8.9,11.4,25.9,15.5,43.4,10.6c14.4-4.1,24.7-10.8,31.8-18.8
						l-2.6,11.1c-0.1,0.2-0.1,0.5-0.1,0.7c-0.1,0.9-0.3,4.1,1.5,6.6c1.1,1.6,2.8,2.6,4.8,2.7c2.5,0.2,6.1-1.2,12.1-4l1.4-0.7
						c-0.3,0.1-0.2,0.1-0.6,0.2c3.7-0.8,6.9-6.6,8.2-9.9c0.2-0.4,0.6-1.5,7.5-20.2c1.8,4.8,4,10,6.7,15c3.7,6.9,10.6,10.3,18.3,9
						c7.7-1.3,14.8-6.6,19.3-14.1c0.3,1.1,0.8,2.2,1.5,3.1c1.5,2,3.7,3,6.2,2.8c4.5-0.1,7.7-1.1,9.9-2.1c3.7-1.5,5.6-4.2,8.7-12.4
						l2.6-6.9c0.7,5.6,2.6,9.6,5.7,11.7c9.5,6.6,40.5,3.1,58.3-19c12-15,14-27.7,13.6-35.8c-0.4-8.3-3.6-15.5-9-20.4
						c-1.6-1.5-3-2.9-4.3-4.3c3.3,1.1,7.7,1.4,13.6-0.3c9-2.5,15-6.3,19-11.7C434.1,31.3,439.5,21.7,428.2,10.4z"/>
					<g>
						
							<linearGradient id="SVGID_00000110450644919482498310000012582283544312263314_" gradientUnits="userSpaceOnUse" x1="197.3268" y1="2042.6196" x2="197.3268" y2="2233.05" gradientTransform="matrix(0.7449 -0.3197 0.1249 0.7855 3.6626 -1562.016)">
							<stop  offset="1.123600e-02" style="stop-color:#733100"/>
							<stop  offset="1" style="stop-color:#351200"/>
						</linearGradient>
						<path style="fill:url(#SVGID_00000110450644919482498310000012582283544312263314_);" d="M404.2,13.9
							c-0.8,4.1-6.6,9.3-8.2,15.5c-1.5,5.8,3.7,13.7,17.1,9.9c8.9-2.5,13.5-6,16.2-9.8c1.2-1.7,5-7.7-3.5-16.2
							c-4.8-4.8-13.1-5.8-19.4-5.1c-1.9,0.2-4.1,0.9-3.5,1.6C403.6,10.5,404.5,12.1,404.2,13.9z"/>
						
							<radialGradient id="SVGID_00000093177431919660400490000015482902939074716852_" cx="464.9889" cy="610.6531" r="26.1674" gradientTransform="matrix(0.9951 9.865014e-02 -9.865014e-02 0.9951 5.1829 -631.0189)" gradientUnits="userSpaceOnUse">
							<stop  offset="0" style="stop-color:#A21E3E"/>
							<stop  offset="0" style="stop-color:#C35A1C"/>
							<stop  offset="1" style="stop-color:#411900"/>
						</radialGradient>
						<path style="fill:url(#SVGID_00000093177431919660400490000015482902939074716852_);" d="M404.5,8.3L404.5,8.3L404.5,8.3z
							 M406.1,11.8c0.1,0.6,0.1,1.3-0.1,2c-0.5,2.3-2.1,4.8-3.8,7.3c-1.8,2.7-3.7,5.5-4.5,8.4c-0.2,0.7-0.2,1.4-0.2,2.1
							c0.2,1.5,0.8,2.9,1.9,4c1.5,1.5,5.3,3.9,13.2,1.6c9.5-2.7,12.9-6.3,14.7-8.8c1.2-1.7,1.7-3.7,1.3-5.8
							c-0.5-2.5-2.1-5.2-4.7-7.8c-4.4-4.5-12.3-5.4-18-4.8c-0.2,0-0.3,0-0.4,0.1C405.8,10.6,406,11.2,406.1,11.8z"/>
						
							<radialGradient id="SVGID_00000079473603110934622820000009697898430615898757_" cx="-304.0949" cy="6268.0596" r="39.8243" gradientTransform="matrix(0.2489 -0.2953 0.2529 0.1796 -1107.838 -1194.8234)" gradientUnits="userSpaceOnUse">
							<stop  offset="0" style="stop-color:#F1CC9C"/>
							<stop  offset="1" style="stop-color:#9B4913"/>
						</radialGradient>
						<path style="fill:url(#SVGID_00000079473603110934622820000009697898430615898757_);" d="M408.5,15.9c-1.6-1.3-4.2,3.6-6,5.9
							s-3.1,5.4-1.5,6.6c1.6,1.3,6.1,0.5,8-1.7C410.8,24.4,410.1,17.1,408.5,15.9z"/>
						
							<linearGradient id="SVGID_00000070809786680502254470000006388620454203626175_" gradientUnits="userSpaceOnUse" x1="-44.6571" y1="1817.5132" x2="-34.7893" y2="1836.8262" gradientTransform="matrix(0.8483 -0.1925 0.2145 0.7614 60.8839 -1364.9159)">
							<stop  offset="0" style="stop-color:#FFFFFF"/>
							<stop  offset="1" style="stop-color:#370200"/>
						</linearGradient>
						<path style="fill:url(#SVGID_00000070809786680502254470000006388620454203626175_);" d="M399.5,34.4c-1.2-1.6-0.5-2.1,2-0.6
							s16.1-4.1,14.9-11.7c-1.1-7.3,3.4-9.2,8.1-3.2c5,6.4,0.8,12.5-8.7,16C406.7,38.2,401.4,37.1,399.5,34.4z"/>
						
							<radialGradient id="SVGID_00000106842573958714051000000008871743402543442877_" cx="2744.6333" cy="4589.729" r="80.6305" gradientTransform="matrix(0.3495 -0.1277 5.515173e-02 0.3327 -796.9669 -1167.9657)" gradientUnits="userSpaceOnUse">
							<stop  offset="0" style="stop-color:#F1CC9C"/>
							<stop  offset="1" style="stop-color:#8D4310"/>
						</radialGradient>
						<path style="fill:url(#SVGID_00000106842573958714051000000008871743402543442877_);" d="M424.3,16.4c2.3,2.3,3.8,4.7,4.5,6.9
							c0-0.2,0-0.4-0.1-0.6c-0.5-2.5-2.1-5.2-4.7-7.8c-4.4-4.5-12.3-5.4-18-4.8c-0.2,0-0.3,0-0.4,0.1
							C405.8,10.5,417.2,9.8,424.3,16.4z"/>
						
							<radialGradient id="SVGID_00000017515425766913590120000010640762261640574091_" cx="1752.2319" cy="3736.2339" r="17.9476" gradientTransform="matrix(0.4254 -8.072417e-02 0.1017 0.3395 -718.9886 -1101.3401)" gradientUnits="userSpaceOnUse">
							<stop  offset="0" style="stop-color:#F1CC9C"/>
							<stop  offset="1" style="stop-color:#FFFFFF"/>
						</radialGradient>
						<path style="fill:url(#SVGID_00000017515425766913590120000010640762261640574091_);" d="M401.3,26.3
							c-0.1-1.2,2.2-5.1,3.4-5.5c1.2-0.4,0.9,2.8,1,4s-0.7,2.5-2,3C402.5,28.1,401.4,27.5,401.3,26.3z"/>
					</g>
					<g>
						
							<linearGradient id="SVGID_00000182518128680322947430000001193865755008124057_" gradientUnits="userSpaceOnUse" x1="111.5704" y1="953.6528" x2="92.6501" y2="762.3885" gradientTransform="matrix(0.9999 1.712263e-02 -5.102478e-02 1.0449 12.9137 -832.1846)">
							<stop  offset="0" style="stop-color:#F1CC9C"/>
							<stop  offset="1" style="stop-color:#FFFFFF"/>
						</linearGradient>
						<path style="fill:url(#SVGID_00000182518128680322947430000001193865755008124057_);" d="M85.3,53.5c24.7-5.4,0.5,48-7,51.1
							c-8.7,5.6,0.1-18.6-12.2-6.7c-8.6,7.9-18.2,20.5-23.4,39.1c-3.4,12.2,2.7,18,15.9,10.9c21.1-11.4,76.9-45.3,76.9-45.3
							l-8.2,22.2c0,0-65.4,43.9-79.9,51.7c-14.5,7.7-39.2,4.1-33.9-32.3c5.3-36.6,27-62.4,45.3-76.9C68.6,59.4,78.2,55.3,85.3,53.5z
							"/>
						
							<linearGradient id="SVGID_00000176024096446858379880000006872998445295853703_" gradientUnits="userSpaceOnUse" x1="142.9673" y1="950.2924" x2="124.0448" y2="759.004" gradientTransform="matrix(0.9999 1.712263e-02 -5.102478e-02 1.0449 12.9137 -832.1846)">
							<stop  offset="0" style="stop-color:#F1CC9C"/>
							<stop  offset="1" style="stop-color:#FFFFFF"/>
						</linearGradient>
						<path style="fill:url(#SVGID_00000176024096446858379880000006872998445295853703_);" d="M111.8,47.1
							c-4.6,2.4-7.6,3.9-8.9,9.7C101.6,62.6,73.1,172,73.1,172s-0.4,3.3,2,3.4c2.3,0.2,10.5-4.4,11.1-4.5s2.8-2.6,4.3-6.6
							s45.2-117.2,45.2-117.2s4.7-9.7-6.4-6.1C121.2,43.5,111.8,47.1,111.8,47.1z"/>
						
							<linearGradient id="SVGID_00000039102822682497133340000011359748951822008477_" gradientUnits="userSpaceOnUse" x1="183.5408" y1="946.0647" x2="164.606" y2="754.6519" gradientTransform="matrix(0.9999 1.712263e-02 -5.102478e-02 1.0449 12.9137 -832.1846)">
							<stop  offset="0" style="stop-color:#F1CC9C"/>
							<stop  offset="1" style="stop-color:#FFFFFF"/>
						</linearGradient>
						<path style="fill:url(#SVGID_00000039102822682497133340000011359748951822008477_);" d="M157.2,37.2
							c-4.8,1.9-7.9,3.1-9.7,8.8c-1.8,5.7-39.2,113-39.2,113s-0.6,3.2,1.7,3.7c2.3,0.4,10.9-3.3,11.5-3.4c0.6-0.1,3-2.3,4.9-6.2
							s54.8-113.4,54.8-113.4s5.5-9.3-6-6.9C166.9,34.6,157.2,37.2,157.2,37.2z"/>
						
							<linearGradient id="SVGID_00000057138823454387593770000001423047370619294112_" gradientUnits="userSpaceOnUse" x1="267.2129" y1="764.4992" x2="246.7466" y2="557.6027" gradientTransform="matrix(0.9951 9.865014e-02 -9.865014e-02 0.9951 5.1829 -631.0189)">
							<stop  offset="0" style="stop-color:#F1CC9C"/>
							<stop  offset="1" style="stop-color:#FFFFFF"/>
						</linearGradient>
						<path style="fill:url(#SVGID_00000057138823454387593770000001423047370619294112_);" d="M229.1,53.3
							c-2.4-7.9,10.5-25.6-0.8-21.4c-12.7,4.6-55,18.3-72.7,67.8c-14.7,41.2,14.2,55.3,40.5,47.9c32.1-9.1,43.2-32.4,43.7-57.9
							C240.1,72.3,229.8,55.6,229.1,53.3z M218.8,101.7c-0.9,3.6-3.7,10.3-13.2,14.4c-8.1,3.5-14.3,4-19.5,1.5
							c-7.1-3.4-9.3-11-6.2-21.4c2.6-10.3,12.2-17.7,16.2-20.4l0,0c4.3-2.8,5.8-1.6,6.4-1.2c0.7,0.6,1.1,1.4,1.2,2.4l-0.2,2.4
							l0.3,1.1c0.7,1,2.5,2,4.5,3c2.9,1.5,6.1,3.2,8.5,6.3c1.4,1.8,2.3,4.2,2.4,6.8C219.4,98.4,219.2,100,218.8,101.7z"/>
						
							<linearGradient id="SVGID_00000092423634973678748950000001312571451207855242_" gradientUnits="userSpaceOnUse" x1="374.0239" y1="925.9337" x2="355.1042" y2="734.6725" gradientTransform="matrix(0.9999 1.712263e-02 -5.102478e-02 1.0449 12.9137 -832.1846)">
							<stop  offset="0" style="stop-color:#F1CC9C"/>
							<stop  offset="1" style="stop-color:#FFFFFF"/>
						</linearGradient>
						<path style="fill:url(#SVGID_00000092423634973678748950000001312571451207855242_);" d="M317.3,60.1
							c1.8,2.4,3.6,7.5,1.7,14.1s-8.3,45.7-8.7,47.4c-0.3,1.7-2.1,9.7,2.7,9.4c4.2-0.1,6.9-1.1,8.5-1.7c1.6-0.7,2.8-1.4,5.8-9.3
							c3-7.9,35.6-92.8,35.6-92.8s3.5-6.8-5.1-5C334.2,27.1,315.5,57.7,317.3,60.1z"/>
						
							<linearGradient id="SVGID_00000183961844376424801210000007225269755079461778_" gradientUnits="userSpaceOnUse" x1="409.4064" y1="922.1647" x2="390.4931" y2="730.9696" gradientTransform="matrix(0.9999 1.712263e-02 -5.102478e-02 1.0449 12.9137 -832.1846)">
							<stop  offset="0" style="stop-color:#F1CC9C"/>
							<stop  offset="1" style="stop-color:#FFFFFF"/>
						</linearGradient>
						<path style="fill:url(#SVGID_00000183961844376424801210000007225269755079461778_);" d="M343.7,91.1
							c-3.8,2.6-7.8,26.2-0.9,31s35.4,2.9,52.1-17.9c16.8-20.9,14.4-39.9,5-48.5S381,35,390.6,22.3c4.9-6.4,8.7-8,8.7-9.9
							c0-1.7-2.4-1.7-7.5,0.2c-10.7,3.9-37.1,25.3-28.9,47.7s12.5,28,3.3,33.5C353.5,101.4,349.9,86.9,343.7,91.1z"/>
						<g>
							
								<linearGradient id="SVGID_00000168086380941712086440000009112088322370540422_" gradientUnits="userSpaceOnUse" x1="318.8396" y1="931.8959" x2="299.9182" y2="740.6191" gradientTransform="matrix(0.9999 1.712263e-02 -5.102478e-02 1.0449 12.9137 -832.1846)">
								<stop  offset="0" style="stop-color:#F1CC9C"/>
								<stop  offset="1" style="stop-color:#FFFFFF"/>
							</linearGradient>
							<path style="fill:url(#SVGID_00000168086380941712086440000009112088322370540422_);" d="M331.4,30.4L331.4,30.4l0.3-0.4
								c0.9-1.4,1.7-9.8-25.3-3.3c0,0-5.9,1.9-7.6,4.8c-1.5,2.7-23.5,41.8-26.7,47.6c-0.2-0.2-0.5-0.4-0.7-0.6
								c10.6-29,21-57.6,21-57.6s4.9-9.7-6.8-6.2c-8.4,2.5-18.3,6-18.3,6c-4.8,2.4-7.9,3.8-9.3,9.6c-1.4,5.8-27,115.9-27,115.9
								s-0.4,3.3,2.1,3.5s11-4.3,11.6-4.4c0.6-0.1,2.9-2.6,4.5-6.6c0.5-1.4,5.6-15.3,12.2-33.1c1.6,5.6,5.1,16.9,10.6,27
								c7.2,13.3,27.3,6,32.6-12.1c5.3-18.1,2.1-31.7-7.4-19.6c-6.1,7.7-11.2,0.4-16-7.9L331.4,30.4z"/>
						</g>
					</g>
					<path class="st14" d="M173.2,99.6c-1.1-17,10.4-32.4,25.6-34.3c15.3-1.9,28.6,10.4,29.7,27.4s-10.4,32.4-25.7,34.3
						C187.6,128.9,174.3,116.6,173.2,99.6z"/>
					<g>
						
							<linearGradient id="SVGID_00000127018860072030382410000005960309474418154132_" gradientUnits="userSpaceOnUse" x1="-14.0383" y1="1100.6698" x2="-14.0383" y2="1258.5989" gradientTransform="matrix(0.9982 -0.1143 7.499149e-02 1.0388 4.2468 -1061.6515)">
							<stop  offset="0" style="stop-color:#E20613"/>
							<stop  offset="1" style="stop-color:#A01713"/>
						</linearGradient>
						<path style="fill:url(#SVGID_00000127018860072030382410000005960309474418154132_);" d="M87.1,51.1c24.7-5.4,0.5,48-7,51.1
							c-8.7,5.6,0.1-18.6-12.2-6.7c-8.6,7.9-18.2,20.5-23.4,39.1c-3.4,12.2,2.7,18,15.9,10.9c21.1-11.4,76.9-45.3,76.9-45.3
							l-8.2,22.2c0,0-65.4,43.9-79.9,51.7c-14.4,7.7-39.2,4.1-33.9-32.3c5.3-36.6,27-62.4,45.3-77C70.4,57,79.9,52.9,87.1,51.1z"/>
						
							<linearGradient id="SVGID_00000050652674757767469100000011715307319294110126_" gradientUnits="userSpaceOnUse" x1="18.0233" y1="1100.2887" x2="18.0233" y2="1258.2716" gradientTransform="matrix(0.9982 -0.1143 7.499149e-02 1.0388 4.2468 -1061.6515)">
							<stop  offset="0" style="stop-color:#E20613"/>
							<stop  offset="1" style="stop-color:#A01713"/>
						</linearGradient>
						<path style="fill:url(#SVGID_00000050652674757767469100000011715307319294110126_);" d="M113.6,44.7
							c-4.6,2.4-7.6,3.9-8.9,9.7c-1.3,5.8-29.8,115.2-29.8,115.2s-0.4,3.3,2,3.5c2.3,0.2,10.5-4.4,11.1-4.5s2.8-2.6,4.3-6.6
							s45.2-117.2,45.2-117.2s4.7-9.7-6.4-6.1C123,41.2,113.6,44.7,113.6,44.7z"/>
						
							<linearGradient id="SVGID_00000121962681699378116530000004100678918265490333_" gradientUnits="userSpaceOnUse" x1="58.9798" y1="1099.9136" x2="58.9798" y2="1258.0421" gradientTransform="matrix(0.9982 -0.1143 7.499149e-02 1.0388 4.2468 -1061.6515)">
							<stop  offset="0" style="stop-color:#E20613"/>
							<stop  offset="1" style="stop-color:#A01713"/>
						</linearGradient>
						<path style="fill:url(#SVGID_00000121962681699378116530000004100678918265490333_);" d="M159,34.9c-4.8,1.9-7.9,3.1-9.7,8.8
							c-1.8,5.7-39.2,113-39.2,113s-0.6,3.2,1.7,3.7c2.3,0.4,10.9-3.3,11.5-3.4c0.6-0.1,3-2.3,4.9-6.2S183,37.4,183,37.4
							s5.5-9.3-6-6.9C168.7,32.2,159,34.9,159,34.9z"/>
						
							<linearGradient id="SVGID_00000131358798754968144180000006703601973936488125_" gradientUnits="userSpaceOnUse" x1="263.7609" y1="671.9304" x2="263.7609" y2="851.3691" gradientTransform="matrix(0.9951 9.865014e-02 -9.865014e-02 0.9951 5.1829 -631.0189)">
							<stop  offset="0" style="stop-color:#E20613"/>
							<stop  offset="1" style="stop-color:#A01713"/>
						</linearGradient>
						<path style="fill:url(#SVGID_00000131358798754968144180000006703601973936488125_);" d="M230.9,50.9
							c-2.4-7.9,10.5-25.6-0.8-21.4c-12.6,4.6-55,18.3-72.7,67.8c-14.7,41.2,14.2,55.3,40.5,47.9c32.1-9.1,43.3-32.4,43.7-57.9
							C241.9,69.9,231.6,53.2,230.9,50.9z M221.7,99.6c-0.9,3.8-3.9,10.8-13.9,15.1c-8.5,3.7-15,4.2-20.5,1.6
							c-7.5-3.6-9.8-11.6-6.5-22.6c2.7-10.8,12.8-18.6,17-21.4l0,0c4.5-3,6.1-1.7,6.7-1.2c0.7,0.6,1.2,1.6,1.3,2.5s-0.2,2-0.2,2.6
							c0,0.5-0.5,1.7,5.1,4.4c3.1,1.5,6.4,3.4,9,6.7c1.5,1.9,2.4,4.4,2.6,7.2C222.3,96.1,222.1,97.8,221.7,99.6z"/>
						
							<linearGradient id="SVGID_00000154406085991727036430000015013304644645526147_" gradientUnits="userSpaceOnUse" x1="250.6337" y1="1098.1189" x2="250.6337" y2="1256.0597" gradientTransform="matrix(0.9982 -0.1143 7.499149e-02 1.0388 4.2468 -1061.6515)">
							<stop  offset="0" style="stop-color:#E20613"/>
							<stop  offset="1" style="stop-color:#A01713"/>
						</linearGradient>
						<path style="fill:url(#SVGID_00000154406085991727036430000015013304644645526147_);" d="M319.1,57.8
							c1.8,2.4,3.6,7.5,1.7,14.1c-1.9,6.5-8.3,45.7-8.7,47.4c-0.3,1.7-2.1,9.7,2.7,9.4c4.2-0.1,6.9-1.1,8.5-1.8s2.8-1.4,5.8-9.3
							c3-7.9,35.6-92.8,35.6-92.8s3.5-6.8-5.1-5C335.9,24.7,317.3,55.4,319.1,57.8z"/>
						
							<linearGradient id="SVGID_00000085236657080558684140000013652823233766813631_" gradientUnits="userSpaceOnUse" x1="285.5927" y1="1097.77" x2="285.5927" y2="1255.5974" gradientTransform="matrix(0.9982 -0.1143 7.499149e-02 1.0388 4.2468 -1061.6515)">
							<stop  offset="0" style="stop-color:#E20613"/>
							<stop  offset="1" style="stop-color:#A01713"/>
						</linearGradient>
						<path style="fill:url(#SVGID_00000085236657080558684140000013652823233766813631_);" d="M345.4,88.8
							c-3.8,2.6-7.8,26.1-0.9,31c6.9,4.8,35.4,2.9,52.1-17.9c16.8-20.9,14.4-39.9,5-48.5s-18.9-20.7-9.3-33.4c4.9-6.4,8.7-8,8.7-9.9
							c0-1.7-2.4-1.7-7.5,0.2c-10.7,3.9-37.1,25.3-28.9,47.7s12.5,28,3.2,33.5C355.3,99,351.7,84.5,345.4,88.8z"/>
						<g>
							
								<linearGradient id="SVGID_00000051343035118710853270000004235308159590288826_" gradientUnits="userSpaceOnUse" x1="194.8528" y1="1098.8462" x2="194.8528" y2="1256.792" gradientTransform="matrix(0.9982 -0.1143 7.499149e-02 1.0388 4.2468 -1061.6515)">
								<stop  offset="0" style="stop-color:#E20613"/>
								<stop  offset="1" style="stop-color:#A01713"/>
							</linearGradient>
							<path style="fill:url(#SVGID_00000051343035118710853270000004235308159590288826_);" d="M333.1,28L333.1,28l0.3-0.4
								c0.9-1.4,1.7-9.8-25.3-3.3c0,0-5.9,1.9-7.6,4.8c-1.5,2.7-23.5,41.8-26.7,47.6c-0.2-0.2-0.5-0.4-0.7-0.6
								c10.6-29,21-57.6,21-57.6s4.9-9.7-6.8-6.2c-8.4,2.5-18.3,6-18.3,6c-4.8,2.4-7.9,3.8-9.3,9.6c-1.4,5.8-27,115.9-27,115.9
								s-0.4,3.3,2.1,3.5s11-4.3,11.7-4.4c0.6-0.1,2.9-2.6,4.5-6.6c0.5-1.4,5.6-15.3,12.2-33.1c1.6,5.6,5.1,16.9,10.6,27
								c7.2,13.3,27.3,6,32.6-12.1c5.3-18.1,2.1-31.7-7.4-19.6c-6.1,7.7-11.2,0.4-16-7.9L333.1,28z"/>
						</g>
					</g>
					<g>
						<path class="st35" d="M87.6,54.2c-6,1.6-15.3,5.2-25.5,13.3C48,78.7,23.6,103.3,18,142.3c-0.6,4.3-0.8,8.3-0.6,11.8
							c0.5,7.4,2.9,13,7,16.5c6.8,5.6,16.9,4.3,23.5,0.8c13.3-7.1,71.1-45.8,78.8-50.9c0.4-1.2,2.6-7,4.8-13.1
							c-15.6,9.4-53.6,32.2-70.1,41.1c-10.4,5.6-15.6,3-17.7,0.9c-1.9-1.8-4.7-6.2-2-15.6c5.8-20.5,16.4-33.4,24.4-40.7
							c2.6-2.5,5.7-5,8.7-3.8c2.9,1.2,3.3,4.9,3.5,7.9c0.1,0.7,0.2,1.6,0.3,2.4c0,0,0.1,0,0.1-0.1c0.1-0.1,0.3-0.2,0.4-0.2
							c3.8-1.8,16.7-27.2,15.9-39.6c-0.1-0.8-0.2-1.5-0.3-2.2C94.4,56,93.6,52.9,87.6,54.2z"/>
						<path class="st35" d="M131.7,41.7L131.7,41.7c-7.8,2.5-17.1,6-17.2,6.1c0.1,0,0.2-0.1,0.3-0.1c-1.3,0.7-2.9,0-2.8,1
							c0,0.1,0.1,0.3,0.1,0.5l0,0c-2.5,1.5-3.8,2.8-4.5,6c-1.3,5.6-27,104.5-29.7,114.6c1.2-0.3,3.6-1.4,7.3-3.2l2.4-1.1l-0.8,0.3
							c0.4-0.3,1.8-2.1,2.9-5l45.2-117.2c0-0.1,0.1-0.2,0.1-0.3c0.3-0.7,0.6-1.7,0.6-2.2C135.1,41,134.1,40.9,131.7,41.7z"/>
						<path class="st35" d="M177.3,33.7L177.3,33.7c-8.1,1.7-17.7,4.3-17.8,4.3c0.1,0,0.2-0.1,0.3-0.1c-1.4,0.6-3-0.3-2.9,0.7
							c0,0.1,0,0.2,0.1,0.4l0,0c-2.7,1.2-4.1,2.4-5.1,5.6c-1.7,5.5-35.7,102.9-39,112.4c1.2-0.2,3.8-1,7.6-2.5l2.5-0.8l-0.8,0.3
							c0.4-0.3,2-1.9,3.3-4.7l54.8-113.4c0-0.1,0.1-0.2,0.1-0.2c0.4-0.7,0.8-1.7,0.8-2.2C180.9,33.3,179.8,33.1,177.3,33.7z"/>
						<path class="st35" d="M230.9,32.5L230.9,32.5l-1.6,0.6c-14.4,5.2-52.8,19.1-69.3,65.3c-5.4,15.2-5,27.6,1.3,35.7
							c7.1,9.1,21.1,12.2,35.9,8c27-7.7,40.9-26.1,41.4-54.7c0-1.1,0-2.3-0.1-3.5c-0.8-12-6.5-23.5-9-28.6l-1.4-3.2
							c-0.2-0.8-0.4-1.6-0.4-2.4c-0.3-3.9,1.2-8.4,2.6-12.4c0.5-1.5,1.2-3.7,1.5-5.1C231.6,32.2,231.3,32.3,230.9,32.5z
							 M186.8,118.1L186.8,118.1c-8.5-4.1-11.3-13.3-7.7-25.3c2.8-11.3,13.1-19.3,17.5-22.2c3.9-2.6,7.1-3,9.5-1.1
							c1.4,1.1,2.2,2.8,2.3,4.7c0,0.2,0,0.3,0,0.5c0,0-0.1,0.9-0.1,1.6c0.7,0.5,2.2,1.3,3.2,1.9c3,1.6,6.6,3.5,9.4,7.1
							c1.8,2.3,2.9,5.3,3.1,8.6c0.1,2-0.1,4-0.5,6c-1,4.2-4.3,12-15,16.6C199.5,120.5,192.7,121,186.8,118.1z"/>
						<path class="st35" d="M360,22.9L360,22.9c-20.3,4.3-36.3,28.7-38,33.9c1.2,2,2.2,4.8,2.4,8.1c0.2,2.4-0.1,5.1-0.9,7.9
							c-1.5,5.1-6.1,32.1-7.8,42.3l-0.8,4.8v0.2c-0.4,2.3-0.5,3.7-0.5,4.5c0,0.6,0.1,0.8,0.2,0.9c0.1,0,0.2,0,0.2,0
							c3.6-0.1,5.9-0.8,7.7-1.6c0.6-0.3,1.4-0.6,4-7.5l35.6-92.8c0-0.1,0.1-0.2,0.1-0.3c0.1-0.2,0.2-0.4,0.2-0.6
							C362,22.6,361.3,22.6,360,22.9z"/>
						<path class="st35" d="M368.2,38.9c-1.7,4-2.4,7.9-2.2,11.6c0.1,2.1,0.6,4.1,1.3,6.1l3.4,9.1c2.8,7.2,4.9,12.7,5.2,17.1
							c0.3,4.7-1.5,8.3-6.8,11.4c-8.8,5.3-14.3,1.4-18-1.2c-2.7-1.9-3.4-2.2-4.3-1.5c-1.3,1.3-3.6,10.1-3.2,18
							c0.2,3.8,1.1,6.6,2.4,7.5c5.7,4,32.5,2.6,48.4-17.2c10.2-12.7,11.9-23,11.6-29.4c0-0.1,0-0.2,0-0.4
							c-0.4-5.8-2.6-10.8-6.3-14.2c-9.1-8.3-13.8-16-14.3-23.5l0,0c-0.3-5.1,1.3-9.9,4.7-14.4c1.4-1.8,2.7-3.3,3.9-4.5
							C387.8,15.8,373.8,25.8,368.2,38.9z"/>
						<path class="st35" d="M288,15.5c-8.2,2.4-18,5.9-18.1,5.9c0.1,0,0.2-0.1,0.3-0.1c-1.3,0.6-2.9-0.1-2.9,0.9
							c0,0.1,0,0.3,0.1,0.5l0,0c-2.9,1.6-4.1,2.9-4.9,6c0,0-25,107.3-26.9,115.3c1.2-0.3,3.9-1.3,8-3.3l2.4-1l-0.7,0.3
							c0.4-0.3,1.9-2.1,3-4.9c0.3-0.8,2.7-7.2,12.1-33c0.5-1.3,1.6-2.1,2.8-2.1c1.2,0,2.2,0.9,2.6,2.1c1.6,5.7,5.1,16.6,10.3,26.3
							c3,5.6,8.1,5.6,10.9,5.2c5.9-1,13.6-6.5,16.5-16.4c3.6-12.3,2.4-19.4,1.3-20.1c-0.2,0-1.6,0.6-3.9,3.5c-2.4,3.1-5,4.5-7.8,4.4
							c-5.2-0.3-9.2-6.4-12.7-12.6c-0.3-0.4-0.4-0.9-0.4-1.4c-0.1-0.9,0.2-1.7,0.8-2.4c0,0,49.2-61.4,49.9-62.2
							c-0.8-0.7-5-3-21.9,1.1c-2.3,0.7-5.2,2.3-5.8,3.3l-26.7,47.6c-0.4,0.8-1.2,1.3-2,1.4c-0.8,0.2-1.6,0-2.3-0.5l-0.5-0.4
							c-0.7-0.6-1.2-1.5-1.2-2.5c0-0.5,0-0.9,0.2-1.4l21-57.6c0.1-0.1,0.1-0.3,0.2-0.4c0.3-0.7,0.6-1.7,0.6-2.2
							C291.9,14.8,290.7,14.6,288,15.5z"/>
					</g>
					<g>
						
							<linearGradient id="SVGID_00000056396098459036439170000006659318501691502741_" gradientUnits="userSpaceOnUse" x1="-4716.0146" y1="1490.1569" x2="-4716.0146" y2="1708.9198" gradientTransform="matrix(-0.7877 0.1476 0.2565 0.7453 -3914.0576 -367.2691)">
							<stop  offset="1.123600e-02" style="stop-color:#733100"/>
							<stop  offset="1" style="stop-color:#351200"/>
						</linearGradient>
						<path style="fill:url(#SVGID_00000056396098459036439170000006659318501691502741_);" d="M203.4,80.1
							c2.4,3.4,9.3,4.6,13.1,9.5c3.6,4.6,2.6,15.8-10,21.3c-8.4,3.6-13.6,3.4-17.3,1.6c-1.7-0.8-8.5-3.9-4.3-18.1
							c2-8,9-14.7,14.4-18.3c1.7-1.1,3.7-1.9,3.5-0.8C202.5,76.4,202.4,78.5,203.4,80.1z"/>
						
							<radialGradient id="SVGID_00000172410561508679402820000017020633217009282491_" cx="261.5275" cy="700.2823" r="28.0262" gradientTransform="matrix(0.9951 9.865014e-02 -9.865014e-02 0.9951 5.1829 -631.0189)" gradientUnits="userSpaceOnUse">
							<stop  offset="0" style="stop-color:#A21E3E"/>
							<stop  offset="0" style="stop-color:#C35A1C"/>
							<stop  offset="1" style="stop-color:#411900"/>
						</radialGradient>
						<path style="fill:url(#SVGID_00000172410561508679402820000017020633217009282491_);" d="M200.8,74.8L200.8,74.8L200.8,74.8z
							 M200.6,77.4c-0.1,0.1-0.2,0.1-0.4,0.2c-4.9,3.4-11,9.6-12.8,16.9c-1,4.4-1.3,8.1-0.6,10.8c0.5,2.3,1.7,4,3.4,4.8
							c2.4,1.2,6.7,2.3,15.6-1.5c7.4-3.2,9.6-8,10.2-10.5c0.5-1.9,0.4-3.7-0.1-5.2c-0.2-0.7-0.6-1.4-1-2c-1.8-2.4-4.5-3.8-7.1-5.2
							c-2.5-1.3-4.8-2.5-6.1-4.5c-0.4-0.6-0.7-1.2-0.9-1.9C200.7,78.7,200.7,78,200.6,77.4z"/>
						
							<radialGradient id="SVGID_00000015351228325390417200000001565377993112778923_" cx="-8945.665" cy="-846.8843" r="41.2945" gradientTransform="matrix(-0.3139 -0.1133 -0.1289 0.3345 -2708.9753 -645.2044)" gradientUnits="userSpaceOnUse">
							<stop  offset="0" style="stop-color:#F1CC9C"/>
							<stop  offset="1" style="stop-color:#9B4913"/>
						</radialGradient>
						<path style="fill:url(#SVGID_00000015351228325390417200000001565377993112778923_);" d="M200.6,84.9c0.8-2.3,4.9,0.7,7.3,1.7
							c2.4,1,4.7,3.1,3.9,5.4c-0.8,2.3-4.8,4.7-7.2,3.7C202.2,94.8,199.8,87.3,200.6,84.9z"/>
						
							<linearGradient id="SVGID_00000141457803400770526770000011306054527789635766_" gradientUnits="userSpaceOnUse" x1="-4533.9937" y1="2185.3721" x2="-4522.6382" y2="2207.5972" gradientTransform="matrix(-0.8177 0.3156 0.1683 0.7755 -3873.6138 -164.4861)">
							<stop  offset="0" style="stop-color:#FFFFFF"/>
							<stop  offset="1" style="stop-color:#370200"/>
						</linearGradient>
						<path style="fill:url(#SVGID_00000141457803400770526770000011306054527789635766_);" d="M215.6,96.8c0.3-2.4-0.5-2.4-1.9,0.7
							c-1.4,3.2-14.9,7-17.1-1.3c-2.1-7.9-6.5-6.7-7.9,2.4c-1.5,9.7,4.5,12.7,13.7,9.6C211.3,105.4,215.1,100.7,215.6,96.8z"/>
						
							<radialGradient id="SVGID_00000181051352427526775740000017636660449472558506_" cx="-8479.8467" cy="4107.2261" r="83.6962" gradientTransform="matrix(-0.327 0.1097 8.808088e-02 0.3482 -2942.8787 -417.5115)" gradientUnits="userSpaceOnUse">
							<stop  offset="0" style="stop-color:#F1CC9C"/>
							<stop  offset="1" style="stop-color:#8D4310"/>
						</radialGradient>
						<path style="fill:url(#SVGID_00000181051352427526775740000017636660449472558506_);" d="M187.9,96.1
							c-0.9,3.8-1.2,7.2-0.8,9.8c-0.1-0.2-0.1-0.4-0.2-0.6c-0.6-2.8-0.4-6.4,0.6-10.8c1.8-7.3,7.8-13.6,12.8-16.9
							c0.1-0.1,0.2-0.1,0.4-0.2C200.7,77.9,191,85,187.9,96.1z"/>
						
							<radialGradient id="SVGID_00000029038106979921299380000008693358359661563326_" cx="-7884.7754" cy="5197.5044" r="18.6238" gradientTransform="matrix(-0.3685 0.2036 5.386344e-02 0.3852 -2979.1602 -303.559)" gradientUnits="userSpaceOnUse">
							<stop  offset="0" style="stop-color:#F1CC9C"/>
							<stop  offset="1" style="stop-color:#FFFFFF"/>
						</radialGradient>
						<path style="fill:url(#SVGID_00000029038106979921299380000008693358359661563326_);" d="M210.8,90.1c-0.4-1.3-3.9-3.5-5.1-3
							c-1.2,0.4,0.4,3.3,0.8,4.6c0.4,1.3,1.6,2,2.8,1.5C210.6,92.8,211.2,91.4,210.8,90.1z"/>
					</g>
					
						<radialGradient id="SVGID_00000114060276485646376890000006339509260895844275_" cx="6.0968" cy="1139.4219" r="0.122" gradientTransform="matrix(0.9906 -0.1232 7.230065e-02 1.1034 -10.315 -1086.1321)" gradientUnits="userSpaceOnUse">
						<stop  offset="0" style="stop-color:#F39E8B"/>
						<stop  offset="1" style="stop-color:#E20613"/>
					</radialGradient>
					<path style="fill:url(#SVGID_00000114060276485646376890000006339509260895844275_);" d="M78.1,170.5c0.1-0.2,0.1-0.3,0.1-0.4
						l0,0C78.1,170.3,78.1,170.5,78.1,170.5z"/>
					
						<radialGradient id="SVGID_00000023258889919827565460000008173947460057019816_" cx="42.0382" cy="1131.9839" r="0.1236" gradientTransform="matrix(0.9906 -0.1232 7.230065e-02 1.1034 -10.315 -1086.1321)" gradientUnits="userSpaceOnUse">
						<stop  offset="0" style="stop-color:#F39E8B"/>
						<stop  offset="1" style="stop-color:#E20613"/>
					</radialGradient>
					<path style="fill:url(#SVGID_00000023258889919827565460000008173947460057019816_);" d="M113.1,157.9c0.1-0.2,0.1-0.3,0.1-0.3
						l0,0C113.2,157.7,113.2,157.8,113.1,157.9z"/>
					
						<radialGradient id="SVGID_00000034067508021626092300000011826794027911650192_" cx="165.9293" cy="1133.8275" r="0.1096" gradientTransform="matrix(0.9906 -0.1232 7.230065e-02 1.1034 -10.315 -1086.1321)" gradientUnits="userSpaceOnUse">
						<stop  offset="0" style="stop-color:#F39E8B"/>
						<stop  offset="1" style="stop-color:#E20613"/>
					</radialGradient>
					<path style="fill:url(#SVGID_00000034067508021626092300000011826794027911650192_);" d="M236,144.7c0.1-0.2,0.1-0.3,0.1-0.3
						l0,0C236,144.6,236,144.7,236,144.7z"/>
					
						<radialGradient id="SVGID_00000057109210198085617910000005167198516903202963_" cx="3.1763" cy="1142.348" r="0.1263" gradientTransform="matrix(0.9906 -0.1232 7.230065e-02 1.1034 -10.315 -1086.1321)" gradientUnits="userSpaceOnUse">
						<stop  offset="0" style="stop-color:#F39E8B"/>
						<stop  offset="1" style="stop-color:#E20613"/>
					</radialGradient>
					<path style="fill:url(#SVGID_00000057109210198085617910000005167198516903202963_);" d="M75.4,174.1c0.1-0.2,0.1-0.3,0.1-0.4
						l0,0C75.5,173.9,75.4,174.1,75.4,174.1z"/>
					<g>
						
							<radialGradient id="SVGID_00000120525723603134553940000010481178150895061430_" cx="0.7098" cy="1055.5137" r="24.5967" gradientTransform="matrix(0.9906 -0.1232 7.230065e-02 1.1034 -10.315 -1086.1321)" gradientUnits="userSpaceOnUse">
							<stop  offset="0" style="stop-color:#F39E8B"/>
							<stop  offset="1" style="stop-color:#E20613"/>
						</radialGradient>
						<path style="fill:url(#SVGID_00000120525723603134553940000010481178150895061430_);" d="M59.7,71.5
							C69.8,63.4,79,59.8,85,58.3c5.6-1.2,6.3,1.4,6.6,2.7c2.4,8.8-6,28.2-11.7,37c5-5.1,17.1-30.2,14.3-40.6
							c-0.3-1.3-1-3.9-6.6-2.7c-6,1.6-15.2,5.1-25.3,13.2c-6.6,5.3-15.6,13.6-23.8,24.9C46,83.3,53.7,76.2,59.7,71.5z"/>
						
							<radialGradient id="SVGID_00000068637026780146270460000007316443153249467039_" cx="51.2053" cy="1067.0956" r="29.9249" gradientTransform="matrix(0.9906 -0.1232 7.230065e-02 1.1034 -10.315 -1086.1321)" gradientUnits="userSpaceOnUse">
							<stop  offset="0" style="stop-color:#F39E8B"/>
							<stop  offset="1" style="stop-color:#E20613"/>
						</radialGradient>
						<path style="fill:url(#SVGID_00000068637026780146270460000007316443153249467039_);" d="M111.9,51.8c0.1,0,9.4-3.6,17.2-6.1
							c1.7-0.6,2.7-0.6,3.2-0.6c-0.1,0.5-0.3,1.1-0.5,1.5c-0.1,0.1-0.1,0.2-0.1,0.3l-31.4,81.6c10.6-6.3,20.7-12.4,27.4-16.4
							c0.3-0.8,0.6-1.7,0.9-2.5c-6.7,4-15.9,9.5-25.6,15.3l31.5-81.6c0-0.1,0.1-0.2,0.1-0.3c0.2-0.5,0.4-1,0.5-1.5
							c-0.5,0-1.5,0.1-3.2,0.6c-7.8,2.5-17.1,6-17.2,6.1c-3.9,2-5.4,3-6.3,5.7C109.2,53.3,110.4,52.6,111.9,51.8z"/>
						
							<radialGradient id="SVGID_00000107565574738117201600000005225005512686023068_" cx="-8.5756" cy="1100.8766" r="23.3089" gradientTransform="matrix(0.9906 -0.1232 7.230065e-02 1.1034 -10.315 -1086.1321)" gradientUnits="userSpaceOnUse">
							<stop  offset="0" style="stop-color:#F39E8B"/>
							<stop  offset="1" style="stop-color:#E20613"/>
						</radialGradient>
						<path style="fill:url(#SVGID_00000107565574738117201600000005225005512686023068_);" d="M85.5,135.3
							c-9.4,5.5-18,10.4-23.9,13.6c-10.7,5.7-16,3-18.2,0.9c-2-1.9-4.9-6.5-2.2-16.1c3.3-11.6,8.1-20.8,13.1-27.9
							c-5.9,7.5-11.9,17.8-15.8,31.5c-2.7,9.6,0.2,14.2,2.2,16.1c2.2,2.1,7.6,4.9,18.2-0.9c6.3-3.4,15.8-8.8,25.9-14.8
							C85.1,136.9,85.3,136.1,85.5,135.3z"/>
						
							<radialGradient id="SVGID_00000007428506215046792690000000476392540373431431_" cx="84.4825" cy="1078.6361" r="42.8643" gradientTransform="matrix(0.9906 -0.1232 7.230065e-02 1.1034 -10.315 -1086.1321)" gradientUnits="userSpaceOnUse">
							<stop  offset="0" style="stop-color:#F39E8B"/>
							<stop  offset="1" style="stop-color:#E20613"/>
						</radialGradient>
						<path style="fill:url(#SVGID_00000007428506215046792690000000476392540373431431_);" d="M177.4,34.1
							c-8.1,1.7-17.7,4.3-17.8,4.3c-4.3,1.8-5.9,2.5-7,5.6c1-0.7,2.4-1.3,4.3-2.1c0.1,0,9.7-2.6,17.8-4.3c1.8-0.4,2.8-0.4,3.3-0.3
							c-0.1,0.5-0.3,1.1-0.6,1.6c-0.1,0.1-0.1,0.2-0.2,0.3l-54.7,113.5c-0.2,0.3-0.3,0.6-0.5,0.9l0,0c0.3-0.2,1.8-1.7,3.1-4.5
							l54.8-113.4c0-0.1,0.1-0.2,0.1-0.3c0.3-0.5,0.5-1.1,0.6-1.6C180.2,33.8,179.2,33.8,177.4,34.1z"/>
						
							<radialGradient id="SVGID_00000001631334766290831790000002816398053824194715_" cx="20.2771" cy="1125.8424" r="8.3756" gradientTransform="matrix(0.9906 -0.1232 7.230065e-02 1.1034 -10.315 -1086.1321)" gradientUnits="userSpaceOnUse">
							<stop  offset="0" style="stop-color:#F39E8B"/>
							<stop  offset="1" style="stop-color:#E20613"/>
						</radialGradient>
						<path style="fill:url(#SVGID_00000001631334766290831790000002816398053824194715_);" d="M94.8,142.8l-8.2,21.4
							c-0.2,0.5-0.4,1-0.6,1.4c0.2-0.1,0.4-0.2,0.5-0.2c0.3-0.3,1.7-1.9,2.7-4.7l7.3-18.9C95.9,142,95.3,142.4,94.8,142.8z"/>
					</g>
					
						<radialGradient id="SVGID_00000170979617401619562190000003497461046353249437_" cx="39.1182" cy="1134.9097" r="0.1239" gradientTransform="matrix(0.9906 -0.1232 7.230065e-02 1.1034 -10.315 -1086.1321)" gradientUnits="userSpaceOnUse">
						<stop  offset="0" style="stop-color:#F39E8B"/>
						<stop  offset="1" style="stop-color:#E20613"/>
					</radialGradient>
					<path style="fill:url(#SVGID_00000170979617401619562190000003497461046353249437_);" d="M110.5,161.5c0.1-0.2,0.1-0.3,0.1-0.3
						l0,0C110.5,161.3,110.5,161.4,110.5,161.5z"/>
					<g>
						
							<radialGradient id="SVGID_00000138561947098335839550000009388301617194961071_" cx="132.0816" cy="1090.3434" r="30.4593" gradientTransform="matrix(0.9906 -0.1232 7.230065e-02 1.1034 -10.315 -1086.1321)" gradientUnits="userSpaceOnUse">
							<stop  offset="0" style="stop-color:#F39E8B"/>
							<stop  offset="1" style="stop-color:#E20613"/>
						</radialGradient>
						<path style="fill:url(#SVGID_00000138561947098335839550000009388301617194961071_);" d="M182.8,83.4c-3,3.6-5.7,7.9-6.9,12.9
							c-1.2,4.1-1.7,7.9-1.5,11.3c0.4,6.7,3.7,11.8,9.5,14.6c6,2.9,13,2.4,22-1.5c6.5-2.8,10.3-6.8,12.6-10.5
							c-2.3,2.5-5.5,5-9.9,6.9c-9,3.9-16,4.3-22,1.5c-5.8-2.8-9-7.9-9.5-14.6c-0.2-3.4,0.3-7.2,1.5-11.3
							C179.4,89.3,181,86.1,182.8,83.4z"/>
						
							<radialGradient id="SVGID_00000050663634323228982310000007425920912892004537_" cx="180.7512" cy="1044.1149" r="39.6153" gradientTransform="matrix(0.9906 -0.1232 7.230065e-02 1.1034 -10.315 -1086.1321)" gradientUnits="userSpaceOnUse">
							<stop  offset="0" style="stop-color:#F39E8B"/>
							<stop  offset="1" style="stop-color:#E20613"/>
						</radialGradient>
						<path style="fill:url(#SVGID_00000050663634323228982310000007425920912892004537_);" d="M229.2,55.4l-1.5-3.3
							c-0.2-0.8-0.4-1.6-0.4-2.5c-0.3-4,1.2-8.5,2.6-12.6c0.4-1.3,0.9-2.9,1.3-4.2c-0.1,0-0.1,0-0.2,0.1l0,0l-1.6,0.6
							c-11.3,4.1-37.2,13.4-55.8,39.5c18.3-23.3,42.3-32,53.1-35.9l1.6-0.6l0,0c0.1,0,0.1,0,0.2,0c-0.3,1.3-0.9,2.9-1.3,4.2
							c-1.4,4.1-2.9,8.6-2.6,12.6c0.1,0.9,0.2,1.7,0.4,2.5l1.5,3.3c2.5,5.1,8.2,16.5,9,28.4c0.1,1.1,0.1,2.3,0.1,3.4
							c-0.2,13.2-3.3,24.1-9.2,32.9c7.7-9.3,11.7-21.5,11.9-36.5c0-1.1,0-2.3-0.1-3.4C237.4,71.9,231.8,60.6,229.2,55.4z"/>
					</g>
					
						<radialGradient id="SVGID_00000116215666114566550440000005681097935472113304_" cx="276.5025" cy="1081.673" r="34.5087" gradientTransform="matrix(0.9906 -0.1232 7.230065e-02 1.1034 -10.315 -1086.1321)" gradientUnits="userSpaceOnUse">
						<stop  offset="0" style="stop-color:#F39E8B"/>
						<stop  offset="1" style="stop-color:#E20613"/>
					</radialGradient>
					<path style="fill:url(#SVGID_00000116215666114566550440000005681097935472113304_);" d="M360.1,23.4L360.1,23.4
						c-14.2,3-26.4,16-32.8,25.2c6.9-8.7,17.8-19,30.2-21.6l0,0c0.8-0.2,1.3-0.2,1.7-0.2c0,0.1-0.1,0.1-0.1,0.2l-35.6,92.8
						c-0.6,1.6-1.1,2.8-1.5,3.7c0.2-0.1,0.3-0.1,0.5-0.2c0.5-0.2,1.2-0.5,3.8-7.2l35.6-92.8c0-0.1,0.1-0.1,0.1-0.2
						C361.4,23.2,360.9,23.2,360.1,23.4z"/>
					<g>
						
							<radialGradient id="SVGID_00000136392184180388715000000008228313648679746231_" cx="320.1645" cy="1041.5834" r="8.9635" gradientTransform="matrix(0.9906 -0.1232 7.230065e-02 1.1034 -10.315 -1086.1321)" gradientUnits="userSpaceOnUse">
							<stop  offset="0" style="stop-color:#F39E8B"/>
							<stop  offset="1" style="stop-color:#E20613"/>
						</radialGradient>
						<path style="fill:url(#SVGID_00000136392184180388715000000008228313648679746231_);" d="M389.1,18.6c0.2-0.3,0.4-0.7,0.7-1
							c0.9-1.1,1.6-1.9,2.4-2.8c-5.5,2.7-14.3,9.3-20.1,17.9C377.6,26,384.4,21.1,389.1,18.6z"/>
						
							<radialGradient id="SVGID_00000124140017929934752450000002897030086672262531_" cx="292.545" cy="1103.6271" r="10.2189" gradientTransform="matrix(0.9906 -0.1232 7.230065e-02 1.1034 -10.315 -1086.1321)" gradientUnits="userSpaceOnUse">
							<stop  offset="0" style="stop-color:#F39E8B"/>
							<stop  offset="1" style="stop-color:#E20613"/>
						</radialGradient>
						<path style="fill:url(#SVGID_00000124140017929934752450000002897030086672262531_);" d="M348.3,97.1
							c3.7,2.6,9.4,6.6,18.4,1.2c3-1.8,5-3.8,6-6c-0.9,0.8-2,1.7-3.3,2.4c-9,5.4-14.7,1.4-18.4-1.2c-2.7-1.9-3.2-2-3.9-1.5
							c-0.4,0.4-0.9,1.7-1.4,3.5C346.2,95.7,347,96.2,348.3,97.1z"/>
						
							<radialGradient id="SVGID_00000112623600522419774390000002189251966930940601_" cx="330.024" cy="1074.8185" r="26.6658" gradientTransform="matrix(0.9906 -0.1232 7.230065e-02 1.1034 -10.315 -1086.1321)" gradientUnits="userSpaceOnUse">
							<stop  offset="0" style="stop-color:#F39E8B"/>
							<stop  offset="1" style="stop-color:#E20613"/>
						</radialGradient>
						<path style="fill:url(#SVGID_00000112623600522419774390000002189251966930940601_);" d="M399.4,56.3
							c-9.2-8.4-14-16.2-14.5-23.8l0,0c-0.3-4.5,0.9-8.7,3.4-12.8c-0.4,0.5-0.9,1-1.3,1.6c-3.5,4.6-5.1,9.6-4.8,14.8l0,0
							c0.5,7.6,5.2,15.4,14.5,23.8c3.6,3.3,5.8,8.2,6.2,13.8c0,0.1,0,0.2,0,0.3c0.3,5.7-1.1,14.5-8.7,25.4
							c10-12.5,11.7-22.6,11.4-28.9c0-0.1,0-0.2,0-0.3C405.2,64.4,403,59.5,399.4,56.3z"/>
					</g>
					<g>
						
							<radialGradient id="SVGID_00000096055064894726159070000007200987795154906003_" cx="224.2321" cy="1106.8739" r="16.1459" gradientTransform="matrix(0.9906 -0.1232 7.230065e-02 1.1034 -10.315 -1086.1321)" gradientUnits="userSpaceOnUse">
							<stop  offset="0" style="stop-color:#F39E8B"/>
							<stop  offset="1" style="stop-color:#E20613"/>
						</radialGradient>
						<path style="fill:url(#SVGID_00000096055064894726159070000007200987795154906003_);" d="M301.4,100.9
							c-2.5,3.2-5.3,4.7-8.2,4.6c-5.4-0.3-9.4-6.5-13.1-12.8c-0.3-0.5-0.5-1.1-0.5-1.7c0-0.7,0.1-1.3,0.4-1.9
							c-1.4,1.7-2.2,2.7-2.2,2.7c-0.6,0.8-0.9,1.8-0.9,2.8c0,0.6,0.2,1.2,0.5,1.7c3.6,6.3,7.6,12.5,13.1,12.8
							c2.9,0.2,5.7-1.4,8.2-4.6c1.8-2.3,2.9-3,3.3-3.2c0.3,0.5,0.6,1.5,0.8,3.4c0.2,3.3-0.2,8.8-2.3,16c-0.7,2.3-1.6,4.3-2.7,6.2
							c2.3-2.5,4.2-5.8,5.4-9.7c2.1-7.3,2.5-12.7,2.3-16c-0.1-1.8-0.4-2.9-0.8-3.4C304.3,97.9,303.2,98.6,301.4,100.9z"/>
						
							<radialGradient id="SVGID_00000098914860471227193500000003620544568713540799_" cx="215.5141" cy="1053.5769" r="23.4185" gradientTransform="matrix(0.9906 -0.1232 7.230065e-02 1.1034 -10.315 -1086.1321)" gradientUnits="userSpaceOnUse">
							<stop  offset="0" style="stop-color:#F39E8B"/>
							<stop  offset="1" style="stop-color:#E20613"/>
						</radialGradient>
						<path style="fill:url(#SVGID_00000098914860471227193500000003620544568713540799_);" d="M267.3,25.5c0.1,0,9.9-3.5,18.1-5.9
							c2-0.6,3.1-0.6,3.7-0.6c-0.1,0.5-0.3,1-0.5,1.5c-0.1,0.1-0.1,0.3-0.2,0.4l-21,57.6c-0.2,0.5-0.3,1.1-0.2,1.6
							c0.1,1.1,0.6,2.2,1.4,2.9l0.5,0.4c0.7,0.6,1.7,0.8,2.6,0.6s1.8-0.8,2.3-1.7l1.3-2.2c-0.3,0.1-0.5,0.3-0.8,0.3
							c-0.9,0.2-1.9,0-2.6-0.6l-0.5-0.4c-0.8-0.7-1.4-1.7-1.4-2.9c0-0.5,0-1.1,0.2-1.6l21-57.6c0-0.1,0.1-0.3,0.2-0.4
							c0.2-0.5,0.4-1,0.5-1.5c-0.6,0-1.6,0-3.7,0.6c-8.2,2.4-18,5.9-18.1,5.9c-4.2,2.1-5.8,3-6.7,5.8
							C264.3,27,265.6,26.3,267.3,25.5z"/>
						
							<radialGradient id="SVGID_00000074438875852534379650000011302472289229801136_" cx="253.4873" cy="1038.9733" r="10.2274" gradientTransform="matrix(0.9906 -0.1232 7.230065e-02 1.1034 -10.315 -1086.1321)" gradientUnits="userSpaceOnUse">
							<stop  offset="0" style="stop-color:#F39E8B"/>
							<stop  offset="1" style="stop-color:#E20613"/>
						</radialGradient>
						<path style="fill:url(#SVGID_00000074438875852534379650000011302472289229801136_);" d="M306.1,31.6
							c14.6-3.6,19.6-2.4,21.1-1.6c1.6-2,2.6-3.3,2.8-3.5c-1.4-0.8-6.3-2.1-21.3,1.5c-2.2,0.7-4.9,2.2-5.4,3.1l-1.4,2.5
							C303.1,32.8,304.7,32,306.1,31.6z"/>
						
							<radialGradient id="SVGID_00000040538533094709510280000008480085708306127243_" cx="183.5989" cy="1115.0135" r="12.6128" gradientTransform="matrix(0.9906 -0.1232 7.230065e-02 1.1034 -10.315 -1086.1321)" gradientUnits="userSpaceOnUse">
							<stop  offset="0" style="stop-color:#F39E8B"/>
							<stop  offset="1" style="stop-color:#E20613"/>
						</radialGradient>
						<path style="fill:url(#SVGID_00000040538533094709510280000008480085708306127243_);" d="M257.5,105.5
							c-9.4,25.8-11.8,32.2-12.1,33c-0.2,0.5-0.4,0.9-0.6,1.3c0.1-0.1,0.3-0.1,0.4-0.2c0.3-0.3,1.7-1.8,2.9-4.7
							c0.3-0.8,2.6-7,11.6-31.6C258.7,103.6,257.9,104.4,257.5,105.5z"/>
					</g>
					
						<radialGradient id="SVGID_00000149382190922677976230000003577653441018389388_" cx="163.0063" cy="1136.7449" r="0.1084" gradientTransform="matrix(0.9906 -0.1232 7.230065e-02 1.1034 -10.315 -1086.1321)" gradientUnits="userSpaceOnUse">
						<stop  offset="0" style="stop-color:#F39E8B"/>
						<stop  offset="1" style="stop-color:#E20613"/>
					</radialGradient>
					<path style="fill:url(#SVGID_00000149382190922677976230000003577653441018389388_);" d="M233.3,148.2c0.1-0.2,0.1-0.3,0.1-0.3
						l0,0C233.4,148.1,233.3,148.2,233.3,148.2z"/>
				</g>
				<path class="st35" d="M220.9,51.8c0,0,5.7-4.4,7.3,1.2c0,0,0.4-13.2-0.1-9.7c-0.5,3.4-1.7-0.4-0.3-4.2
					C230,32.8,223,46.8,220.9,51.8z"/>
				
					<radialGradient id="SVGID_00000170978964136777645350000002737682259880202407_" cx="270.94" cy="793.0803" r="39.4028" gradientTransform="matrix(1.0009 1.662421e-02 -5.257081e-02 1.1101 14.7202 -841.222)" gradientUnits="userSpaceOnUse">
					<stop  offset="0" style="stop-color:#F39E8B"/>
					<stop  offset="1" style="stop-color:#E20613"/>
				</radialGradient>
				<path style="fill:url(#SVGID_00000170978964136777645350000002737682259880202407_);" d="M212.5,61.6c0,0,9.1-9.9,13.3-4.2
					c4.1,5.7,1.9-5.2,1.9-5.2S224.2,43.8,212.5,61.6z"/>
			</g>
		</g>
	</g>
	<g>
		<g id="_xAE__10_">
			<path class="st1" d="M436.6,63.8c-0.5,4.7-4.6,8.1-9.3,7.6c-4.7-0.5-8.1-4.6-7.6-9.3s4.6-8.1,9.3-7.6
				C433.6,55,437,59.1,436.6,63.8z"/>
		</g>
		<g id="_xAE__4_">
			<path class="st14" d="M435.4,63.7c-0.4,4.1-4,7-8.1,6.6s-7-4-6.6-8.1s4-7,8.1-6.6C432.9,56.1,435.8,59.7,435.4,63.7z M422.2,62.4
				c-0.3,3.3,2,6.2,5.3,6.5s6.2-2.1,6.5-5.3s-2.1-6.1-5.3-6.5C425.4,56.8,422.5,59.2,422.2,62.4z M429.2,67.1l-0.5-1.3
				c-0.2-0.6-0.6-1.3-0.9-1.6s-0.5-0.5-1.2-0.5h-0.3l-0.3,3.2l-1.6-0.2l0.8-7.8l3.8,0.4c1.7,0.2,2.4,1.2,2.2,2.4
				c-0.1,1.2-1,1.9-2.3,2l0,0c0.6,0.3,0.8,0.5,1.5,2l0.7,1.7L429.2,67.1z M428,62.5c1.1,0.1,1.5-0.4,1.5-0.9
				c0.1-0.7-0.4-1.1-1.5-1.2l-1.5-0.1l-0.2,2.1L428,62.5z"/>
		</g>
	</g>
</g>
</svg>
